<?xml version="1.0" encoding="UTF-8" standalone="no"?>
<!-- Created with Inkscape (http://www.inkscape.org/) -->

<svg
   xmlns:svg="http://www.w3.org/2000/svg"
   xmlns="http://www.w3.org/2000/svg"
   version="1.1"
   width="602.36218"
   height="179.25591"
   id="svg2913">
  <defs
     id="defs2915">
    <clipPath
       id="clipPath40">
      <path
         d="m 148.11,531.496 123.307,0 0,42.52 -123.307,0 0,-42.52 z"
         id="path42" />
    </clipPath>
    <clipPath
       id="clipPath28">
      <path
         d="m 199.37,21.259 21.26,0 0,38.268 -21.26,0 0,-38.268 z"
         id="path30" />
    </clipPath>
  </defs>
  <g
     transform="translate(-303.15625,-592.1993)"
     id="layer1">
    <path
       d="m 505.34652,609.91946 c -0.18602,0 -0.29997,0.18144 -0.67204,1.20966 l -7.05637,19.28742 c -0.55808,1.55587 -1.19022,2.77094 -2.62094,2.95695 -0.25029,0.0305 -0.6538,0.0672 -0.87364,0.0672 -0.1557,0 -0.26882,0.009 -0.26882,0.13441 0,0.18601 0.20232,0.26881 0.60484,0.26881 1.46116,0 3.15297,-0.0672 3.49458,-0.0672 0.34161,0 1.67183,0.0672 2.41933,0.0672 0.27735,0 0.47042,-0.0828 0.47042,-0.26881 0,-0.12516 -0.11946,-0.13441 -0.33602,-0.13441 l -0.26881,0 c -0.53103,0 -1.20966,-0.31851 -1.20966,-0.94085 0,-0.55808 0.1898,-1.30536 0.47042,-2.08331 l 1.8145,-5.51069 c 0.0609,-0.1557 0.18047,-0.20161 0.33602,-0.20161 l 6.65315,0 c 0.15569,0 0.27511,0.009 0.33601,0.1344 l 2.88976,7.66121 c 0.18602,0.4972 -0.0156,0.81276 -0.20161,0.87364 -0.12516,0.0305 -0.20161,0.0798 -0.20161,0.20162 0,0.18946 0.28511,0.17122 0.87364,0.20161 2.14439,0.0609 4.43909,0.0672 4.90586,0.0672 0.34161,0 0.60483,-0.0828 0.60483,-0.26881 0,-0.1557 -0.0828,-0.13441 -0.26881,-0.13441 -0.31116,0 -0.8101,-0.0459 -1.27687,-0.20161 -0.65279,-0.18602 -1.56858,-0.66064 -2.68814,-3.42738 -1.89749,-4.72511 -6.72401,-17.56935 -7.19078,-18.74979 -0.37204,-0.96397 -0.54984,-1.14246 -0.73924,-1.14246 z m 95.69785,0 c -0.18602,0 -0.29997,0.18144 -0.67203,1.20966 l -7.05637,19.28742 c -0.4634,1.28867 -0.97141,2.33595 -1.94891,2.75534 -0.81175,-0.27057 -1.59611,-0.86612 -2.62094,-2.0161 -2.34057,-2.6247 -7.24705,-8.837 -8.40044,-10.41655 0.65279,-0.77793 6.14402,-6.11064 6.92197,-6.85476 1.39688,-1.33941 2.08503,-2.12669 3.36017,-2.68815 0.61896,-0.27735 1.28053,-0.40322 1.7473,-0.40322 0.25027,0 0.26881,-0.0461 0.26881,-0.20161 0,-0.1557 -0.12888,-0.26881 -0.47043,-0.26881 -0.77794,0 -2.80136,0.1344 -2.95695,0.1344 -0.7475,0 -1.73316,-0.1344 -2.35213,-0.1344 -0.21647,0 -0.33601,0.1132 -0.33601,0.26881 0,0.12516 0.11318,0.13736 0.26881,0.20161 0.2503,0.0914 0.40322,0.2966 0.40322,0.67204 0,0.52765 -0.81083,1.31803 -1.68009,2.21772 -1.11953,1.21426 -6.73033,6.93489 -7.25798,7.52679 l -0.13441,-1.81449 c 0,-4.84687 0.006,-5.72596 0.0672,-6.72036 0.0643,-1.0891 0.30365,-1.6589 1.14246,-1.81449 0.37543,-0.0609 0.52277,-0.0672 0.73924,-0.0672 0.12516,0 0.26881,-0.0799 0.26881,-0.20161 0,-0.18946 -0.12533,-0.26881 -0.47042,-0.26881 -0.93014,0 -2.74341,0.1344 -3.02416,0.1344 -0.18602,0 -2.03048,-0.1344 -3.42739,-0.1344 -0.3416,0 -0.47042,0.0794 -0.47042,0.26881 0,0.12172 0.0765,0.20161 0.20161,0.20161 0.27735,0 0.82836,0.006 1.07526,0.0672 1.02485,0.21647 1.27981,0.75921 1.34407,1.81449 0.0574,0.9944 0.0672,1.87349 0.0672,6.72036 l 0,5.44348 c 0,2.98322 -0.0494,5.41478 -0.20161,6.72036 -0.12516,0.90309 -0.25131,1.62215 -0.87364,1.74729 -0.28075,0.0609 -0.6635,0.13441 -0.94085,0.13441 -0.18946,0 -0.26882,0.0396 -0.26882,0.13441 0,0.18601 0.19591,0.26881 0.53763,0.26881 0.93014,0 2.70668,-0.0672 2.95696,-0.0672 0.24692,0 2.03974,0.0672 3.56178,0.0672 0.34161,0 0.53763,-0.11331 0.53763,-0.26881 0,-0.0946 -0.0828,-0.13441 -0.26881,-0.13441 -0.27735,0 -0.77335,-0.0735 -1.20967,-0.13441 -0.93014,-0.12516 -1.11157,-0.8442 -1.20966,-1.74729 -0.15226,-1.30558 -0.13441,-3.73714 -0.13441,-6.72036 l 0,-3.02416 c 0.70015,0.96735 3.60644,4.78595 5.51069,7.19078 1.65396,2.09366 2.83737,3.57046 4.16662,4.30103 0.56486,0.31118 0.84068,0.53763 2.28492,0.53763 0,0 2.06947,-0.0672 3.15857,-0.0672 1.0316,0 2.07505,0.0672 2.82255,0.0672 0.27735,0 0.47043,-0.0828 0.47043,-0.26881 0,-0.12516 -0.11626,-0.13441 -0.33602,-0.13441 l -0.33602,0 c -0.53103,0 -1.14246,-0.31851 -1.14246,-0.94085 0,-0.55808 0.1226,-1.30536 0.40322,-2.08331 l 1.8817,-5.51069 c 0.0643,-0.1557 0.18056,-0.20161 0.33602,-0.20161 l 6.65315,0 c 0.1557,0 0.20793,0.009 0.26881,0.1344 l 2.88976,7.66121 c 0.18602,0.4972 -0.0156,0.81276 -0.20161,0.87364 -0.12516,0.0305 -0.20162,0.0798 -0.20162,0.20162 0,0.18946 0.34895,0.17122 0.94085,0.20161 2.14441,0.0609 4.43912,0.0672 4.90586,0.0672 0.34163,0 0.60484,-0.0828 0.60484,-0.26881 0,-0.1557 -0.15,-0.13441 -0.33602,-0.13441 -0.31118,0 -0.74627,-0.0459 -1.20967,-0.20161 -0.65616,-0.18602 -1.5686,-0.66064 -2.68814,-3.42738 -1.89748,-4.72511 -6.78784,-17.56935 -7.25798,-18.74979 -0.37206,-0.96397 -0.486,-1.14246 -0.67204,-1.14246 z m 57.52624,0 c -3.95056,0 -6.45154,2.24967 -6.45154,5.57789 0,2.11396 0.73782,4.0817 4.03221,6.78756 l 1.41128,1.14246 c 2.67203,2.20864 3.56179,3.43349 3.56179,5.57789 0,1.9922 -1.45223,4.16662 -4.43544,4.16662 -2.0835,0 -4.1703,-0.92579 -4.63704,-3.22577 -0.0914,-0.43294 -0.0672,-0.86171 -0.0672,-1.14246 0,-0.2469 -0.0155,-0.33601 -0.20161,-0.33601 -0.15548,0 -0.23836,0.12892 -0.26881,0.47042 -0.0305,0.4972 -0.13441,1.8077 -0.13441,3.36018 0,0.8422 0.0374,0.92261 0.47043,1.14246 1.27512,0.61896 2.70545,0.87364 4.16662,0.87364 1.67763,0 3.36484,-0.41053 4.70424,-1.34407 2.14439,-1.52542 2.62094,-3.89952 2.62094,-5.17467 0,-2.48601 -0.90341,-4.36608 -4.56984,-7.25798 l -0.87365,-0.67204 c -2.98321,-2.33042 -3.76339,-3.46953 -3.76339,-5.24188 0,-2.26954 1.68619,-3.62899 3.8306,-3.62899 2.86145,0 3.71176,1.33848 3.8978,1.68009 0.18602,0.34161 0.36942,1.17025 0.40323,1.54568 0.0305,0.2469 0.0155,0.40322 0.20161,0.40322 0.15569,0 0.26881,-0.24204 0.26881,-0.73923 0,-2.11396 0.13441,-3.14076 0.13441,-3.29298 0,-0.15548 -0.0857,-0.20161 -0.33602,-0.20161 -0.2469,0 -0.48335,-0.009 -1.07526,-0.13441 -0.77455,-0.18602 -1.67888,-0.33601 -2.88975,-0.33601 z m 172.51151,0 c -6.21974,0 -14.72949,4.68246 -16.33046,12.56706 -3.93478,3.83329 -6.85477,9.86671 -6.85477,14.58317 0,5.64473 0.59462,11.2437 3.29298,16.06165 -1.08235,3.15308 -1.26119,5.168 -0.80644,8.46765 0.49231,3.574 1.57791,7.13308 3.49458,8.53485 0.75915,0.55246 5.49166,0.12116 7.25798,-1.27687 0.26308,1.38676 0.54028,2.15004 1.27687,3.36018 1.16126,1.91288 2.21946,2.91693 4.23382,3.8978 -0.008,-0.53741 0.0296,-1.0496 0.0672,-1.54568 0,0 1.51598,4.44328 7.19078,4.36823 -0.93201,-1.92791 -0.53434,-3.36349 0.67203,-4.56984 1.33038,-1.33039 5.84671,-2.18041 5.84671,0.67203 l 0,24.93252 c 0,4.3181 -0.19871,4.91601 -1.20966,6.78756 -1.47319,2.72842 -4.67872,3.55469 -12.56707,5.7795 -5.81387,1.64607 -11.66864,5.1881 -13.17189,9.4085 0,0 2.57494,-2.09813 5.04027,-2.68814 2.08954,-0.49984 4.06735,-0.43462 6.11552,-0.20161 -1.041,1.08235 -1.65951,1.66063 -3.09136,2.35212 -2.33006,1.12745 -4.03174,0.39875 -6.38434,3.36018 2.47285,-0.9621 4.16662,-0.33602 4.16662,-0.33602 -1.50325,2.25114 -3.60112,2.05323 -5.5779,3.22577 -2.15341,1.28154 -2.94276,3.3639 -2.82255,5.6451 2.46159,-3.12678 4.27028,-2.52653 7.25799,-3.8306 2.5781,-1.12369 4.46416,-2.34303 5.7795,-5.44349 0.25933,5.656 -3.75342,6.62526 -5.84671,8.60206 -3.39361,3.20194 -5.13974,5.1065 -4.77145,10.95417 1.27777,-7.61023 8.32565,-7.33024 12.90308,-10.55095 2.88249,-2.02566 3.51405,-4.23112 3.96501,-8.06443 3.83331,10.21464 -5.31254,9.80125 -10.48375,15.38961 -3.01403,3.25831 -3.35781,9.83712 1.41127,11.08859 -1.31159,-1.86781 -1.56514,-3.60355 -0.87364,-5.77951 0.85308,-2.68708 2.84151,-4.21702 5.6451,-4.50263 -1.97678,1.34916 -2.92844,2.80704 -3.29298,5.17467 -0.41715,2.75848 0.32273,4.80745 2.35213,6.72035 -0.51112,-2.95766 -0.43176,-4.96329 1.07525,-7.594 1.85652,-3.23953 5.88912,-4.36599 9.67731,-6.98917 1.76259,-1.21764 3.24169,-3.60307 4.23383,-6.98916 0.004,2.87874 -0.35634,4.64319 -1.8145,7.12357 -1.88284,3.19442 -6.49507,4.08656 -8.40044,7.19078 -1.59721,2.60064 -1.71523,4.61335 -1.47848,7.66121 0.61257,-2.27368 1.99462,-4.93879 4.70425,-6.18273 4.96074,-2.27744 7.87473,-4.32019 9.4757,-8.80367 0.30443,2.49542 0.4061,4.01383 -0.60483,6.24993 -1.57467,3.48756 -5.83585,3.51467 -8.06443,5.5779 -1.08235,0.99967 -1.34007,1.8766 -1.9489,3.22577 1.30783,-0.52989 2.27275,-0.75429 3.56179,-0.73924 2.06322,0.0225 3.16317,0.94085 5.30908,0.94085 3.80699,0 5.97625,-3.55972 5.57789,-9.00528 1.90161,4.86305 6.00449,9.00528 10.41655,9.00528 2.21355,0 4.95315,-0.36849 6.85476,-1.68009 -2.2812,0.28187 -4.65446,-0.72904 -7.12357,-2.28492 -5.23508,-3.2959 -6.37284,-9.00454 -6.98917,-14.24715 1.69493,4.81418 3.84957,7.754 7.79561,10.68536 5.53951,4.11516 13.94466,5.81493 19.08581,2.68814 -1.99557,0.21043 -3.13444,0.15542 -5.10747,-0.20161 -3.00651,-0.53741 -5.29248,-1.28413 -7.25799,-3.02416 4.43838,1.67237 7.77101,1.37528 12.09664,-0.53762 3.23951,-1.4356 4.77365,-3.51732 5.5779,-7.4596 -2.68709,2.78102 -6.21763,3.88256 -8.87087,4.50264 -5.52448,1.2928 -12.46864,-2.00101 -15.52402,-7.72841 0.81928,0.0526 1.27908,0.10344 2.08331,0.26882 3.03659,0.62007 3.36921,2.84818 7.12358,3.49458 0,0 -0.39834,0.74034 -1.14246,1.14246 2.52924,0.53793 4.18406,0.83806 6.65315,0 3.68675,-1.25897 5.90967,-2.52032 8.26603,-4.77145 -1.67613,0.6464 -2.70999,0.88816 -4.50263,0.94085 -2.12336,0.0601 -3.40328,-0.16667 -5.37629,-0.94085 1.92792,-2.11959 3.58495,-3.00801 6.31713,-3.7634 1.76257,-0.48858 5.02941,-0.78348 7.25799,0.26881 -0.91322,-2.29623 -3.83189,-3.80436 -5.91391,-3.8306 -6.67447,-0.0752 -7.16332,3.63078 -11.3574,3.36018 -3.14934,-0.20669 -6.09579,-2.96825 -10.81978,-1.8145 0.1165,-0.9433 0.0431,-1.51736 -0.26881,-2.41932 -0.42092,-1.22139 -0.96427,-2.03091 -1.9489,-2.62094 2.9351,0.44722 4.09804,2.99388 7.72841,3.62899 8.27167,1.45815 9.96993,-1.3456 14.31435,-2.82255 1.42433,-0.48483 3.0478,-0.37382 4.56984,0.26881 0,0 -0.98285,-2.66646 -2.55373,-3.69619 -0.74412,0.83055 -1.37833,1.21076 -2.41933,1.61288 -1.38299,0.52993 -2.61341,0.47596 -3.7634,0.20161 0.0451,-0.92076 0.21974,-2.4958 0.87365,-3.36017 0.78921,-1.04477 1.9049,-1.90676 3.49458,-2.08331 -1.27777,-0.24817 -2.19559,-0.37537 -3.29297,-0.0672 -1.81142,0.49983 -3.8226,3.53902 -7.32519,4.16662 -3.42742,0.61634 -5.9497,-0.5376 -8.46765,-2.82255 1.95424,0.70662 3.2421,0.89378 5.30908,0.67204 3.6379,-0.38709 5.87299,-2.14916 8.13163,-4.63704 -5.12609,0.67646 -11.23114,-2.5709 -13.97833,-7.93002 -0.68402,-1.3379 -0.87365,-2.59726 -0.87365,-4.50264 l 0,-25.33574 c 0,-2.53674 1.55426,-5.27792 4.23382,-4.90586 0,0 -0.38487,3.95548 0.80645,5.98112 1.47695,2.51797 3.44923,3.95415 6.38433,3.8978 0.0564,0.74787 -0.13793,2.02871 -0.73924,2.95696 3.27711,0.0601 9.96508,-4.17711 15.0536,-12.83588 4.08886,-7.35469 1.5585,-13.1343 1.8817,-14.31435 0.36453,-1.35293 1.82819,-1.30384 3.15857,-1.7473 0.0376,-0.63513 0.0234,-0.99654 -0.13441,-1.61288 -0.11275,-0.42843 -0.20409,-0.68066 -0.40322,-1.07526 1.85275,-3.41239 2.21771,-5.5283 2.21771,-9.67731 0,-4.05879 -1.02261,-6.49702 -3.36017,-9.81172 0.69902,-1.09738 1.31063,-1.79105 1.27686,-3.09136 -0.12025,-4.70896 -2.08436,-7.34041 -4.77145,-10.14774 -2.02563,-2.11584 -3.78568,-2.82607 -6.65315,-3.42738 -3.50635,-5.02463 -7.78159,-7.32518 -13.91113,-7.32518 -6.55421,0 -12.97136,3.46133 -15.65843,9.67731 -2.89377,-6.30993 -7.73075,-9.67731 -13.64232,-9.67731 z m -422.71032,0.20161 c -0.15548,0 -0.24765,0.10387 -0.40322,0.1344 -0.24692,0.0643 -0.75216,0.10409 -1.34407,0.13441 -0.71367,0.0338 -6.90371,0.0672 -7.12358,0.0672 l -1.27687,-0.0672 c -0.68661,-0.0303 -1.50404,-0.0672 -2.21771,-0.0672 -0.34163,0 -0.53763,0.0794 -0.53763,0.26881 0,0.12172 0.14707,0.20161 0.26881,0.20161 0.28073,0 0.82496,0.006 1.07526,0.0672 1.02485,0.21647 1.28319,0.75921 1.34407,1.81449 0.0609,0.9944 0,1.87349 0,6.72036 l 0,5.44348 c 0,2.98322 0.0179,5.41478 -0.13441,6.72036 -0.12516,0.90309 -0.25131,1.62215 -0.87364,1.74729 -0.28073,0.0609 -0.66012,0.13441 -0.94085,0.13441 -0.18602,0 -0.26882,0.0396 -0.26882,0.13441 0,0.18601 0.19592,0.26881 0.53763,0.26881 0.46677,0 1.12494,-0.0672 1.74729,-0.0672 0.65279,-0.0303 1.21599,0 1.27687,0 0.46677,0 1.20846,0.006 2.41933,0.0672 1.21427,0.0305 2.90807,0.13441 5.24188,0.13441 1.21089,0 1.46361,-0.0653 1.68008,-0.87365 0.1557,-0.65279 0.40323,-2.70668 0.40323,-2.95696 0,-0.21647 -0.0156,-0.47042 -0.20161,-0.47042 -0.15549,0 -0.20794,0.12882 -0.26882,0.47042 -0.21985,1.27513 -0.6029,1.87611 -1.41127,2.21772 -0.80838,0.34161 -2.14858,0.33602 -2.95696,0.33602 -3.04747,0 -3.5343,-0.40933 -3.62899,-2.55374 -0.0305,-0.65616 0,-4.2538 0,-5.30908 l 0,-2.75534 c 0,-0.12516 0.11327,-0.20161 0.26881,-0.20161 0.52763,0 3.59661,0.0398 4.43544,0.13441 1.21424,0.12171 1.48772,0.70954 1.61288,1.14246 0.12516,0.40588 0.13441,0.69687 0.13441,1.00805 0,0.15548 0.046,0.26881 0.20161,0.26881 0.21647,0 0.20161,-0.35793 0.20161,-0.60483 0,-0.21985 0.0736,-1.32994 0.13441,-1.9489 0.0946,-1.02823 0.26881,-1.56127 0.26881,-1.74729 0,-0.18602 -0.11021,-0.26882 -0.20161,-0.26882 -0.12516,0 -0.25395,0.15303 -0.47042,0.40322 -0.28073,0.31118 -0.66378,0.33897 -1.41128,0.40322 -0.71367,0.0609 -4.57055,0.0672 -4.97306,0.0672 -0.1557,0 -0.20161,-0.0523 -0.20161,-0.26882 l 0,-8.60205 c 0,-0.21647 0.0765,-0.33602 0.20161,-0.33602 0.34161,0 3.77338,0.0736 4.30103,0.13441 1.67763,0.18602 1.93404,0.57806 2.15051,1.07526 0.1557,0.37543 0.20161,0.85878 0.20161,1.07525 0,0.2503 0.0828,0.40322 0.26882,0.40322 0.12515,0 0.17115,-0.18042 0.20161,-0.33601 0.0643,-0.37544 0.10408,-1.70493 0.1344,-2.01611 0.0946,-0.86926 0.26882,-1.25863 0.26882,-1.47848 0,-0.1557 -0.0398,-0.26881 -0.13441,-0.26881 z m 36.96195,0 c -0.15548,0 -0.25103,0.10387 -0.40322,0.1344 -0.2503,0.0643 -0.75216,0.10409 -1.34407,0.13441 -0.71367,0.0338 -6.90713,0.0672 -7.12358,0.0672 l -1.27686,-0.0672 c -0.68324,-0.0303 -1.50405,-0.0672 -2.21772,-0.0672 -0.34163,0 -0.53763,0.0794 -0.53763,0.26881 0,0.12172 0.14368,0.20161 0.26881,0.20161 0.27736,0 0.82496,0.006 1.07526,0.0672 1.02483,0.21647 1.28319,0.75921 1.34407,1.81449 0.0643,0.9944 0.0672,1.87349 0.0672,6.72036 l 0,5.44348 c 0,2.98322 -0.0461,5.41478 -0.20161,6.72036 -0.12516,0.90309 -0.25131,1.62215 -0.87365,1.74729 -0.28073,0.0609 -0.6601,0.13441 -0.94085,0.13441 -0.18602,0 -0.26881,0.0396 -0.26881,0.13441 0,0.18601 0.19612,0.26881 0.53762,0.26881 0.46677,0 1.19216,-0.0672 1.8145,-0.0672 0.65281,-0.0303 1.14538,0 1.20966,0 0.46337,0 1.20509,0.006 2.41933,0.0672 1.21089,0.0305 2.90808,0.13441 5.24188,0.13441 1.21087,0 1.46362,-0.0653 1.68009,-0.87365 0.15548,-0.65279 0.40322,-2.70668 0.40322,-2.95696 0,-0.21647 0.0516,-0.47042 -0.13441,-0.47042 -0.1557,0 -0.27514,0.12882 -0.33602,0.47042 -0.21984,1.27513 -0.53569,1.87611 -1.34407,2.21772 -0.80838,0.34161 -2.21578,0.33602 -3.02416,0.33602 -3.04747,0 -3.53428,-0.40933 -3.62899,-2.55374 -0.0305,-0.65616 0,-4.2538 0,-5.30908 l 0,-2.75534 c 0,-0.12516 0.11325,-0.20161 0.26881,-0.20161 0.52763,0 3.59661,0.0398 4.43544,0.13441 1.21424,0.12171 1.48775,0.70954 1.61288,1.14246 0.12516,0.40588 0.13441,0.69687 0.13441,1.00805 0,0.15548 0.046,0.26881 0.20161,0.26881 0.21647,0 0.20161,-0.35793 0.20161,-0.60483 0,-0.21985 0.0736,-1.32994 0.13441,-1.9489 0.0946,-1.02823 0.26881,-1.56127 0.26881,-1.74729 0,-0.18602 -0.10698,-0.26882 -0.20161,-0.26882 -0.12516,0 -0.18675,0.15303 -0.40322,0.40322 -0.28073,0.31118 -0.73098,0.33897 -1.47848,0.40322 -0.71367,0.0609 -4.57057,0.0672 -4.97306,0.0672 -0.15548,0 -0.20161,-0.0523 -0.20161,-0.26882 l 0,-8.60205 c 0,-0.21647 0.0765,-0.33602 0.20161,-0.33602 0.34161,0 3.77338,0.0736 4.30103,0.13441 1.67764,0.18602 1.99787,0.57806 2.21772,1.07526 0.15225,0.37543 0.1344,0.85878 0.1344,1.07525 0,0.2503 0.0828,0.40322 0.26882,0.40322 0.12516,0 0.17116,-0.18042 0.20161,-0.33601 0.0643,-0.37544 0.10387,-1.70493 0.1344,-2.01611 0.0946,-0.86926 0.26882,-1.25863 0.26882,-1.47848 0,-0.1557 -0.043,-0.26881 -0.13441,-0.26881 z m -31.65287,0.20161 c -0.34501,0 -0.47042,0.0794 -0.47042,0.26881 0,0.12172 0.0764,0.20161 0.20161,0.20161 0.28075,0 0.82495,0.006 1.07525,0.0672 1.02485,0.21647 1.28319,0.75921 1.34407,1.81449 0.0609,0.9944 0.0672,1.87349 0.0672,6.72036 l 0,5.44348 c 0,2.98322 0.0213,5.41478 -0.13441,6.72036 -0.12172,0.90309 -0.31849,1.62215 -0.94085,1.74729 -0.28073,0.0609 -0.66012,0.13441 -0.94085,0.13441 -0.18602,0 -0.20161,0.0396 -0.20161,0.13441 0,0.18601 0.12548,0.26881 0.47043,0.26881 0.46337,0 1.19213,-0.0672 1.81449,-0.0672 0.65279,-0.0303 1.14878,0 1.20966,0 0.12516,0 1.04582,0.006 1.94891,0.0672 0.89969,0.0305 1.87273,0.13441 2.21771,0.13441 5.31364,0 7.93002,-3.45934 7.93002,-6.78756 0,-3.636 -3.07631,-5.87228 -5.37628,-6.58595 1.46117,-1.52205 2.88975,-3.031 2.88975,-5.57789 0,-1.55588 -1.08556,-4.70425 -6.18272,-4.70425 -1.43072,0 -2.67989,0.1344 -3.42739,0.1344 -0.15569,0 -2.09767,-0.1344 -3.49458,-0.1344 z m 35.68508,0 c -0.34163,0 -0.47042,0.0794 -0.47042,0.26881 0,0.12172 0.1437,0.20161 0.26881,0.20161 0.27736,0 0.76114,0.006 1.00806,0.0672 1.02485,0.21647 1.28319,0.75921 1.34407,1.81449 0.0643,0.9944 0.0672,1.87349 0.0672,6.72036 l 0,5.44348 c 0,2.98322 0.0211,5.41478 -0.13441,6.72036 -0.12516,0.90309 -0.31851,1.62215 -0.94085,1.74729 -0.28072,0.0609 -0.59629,0.13441 -0.87364,0.13441 -0.18946,0 -0.26882,0.0396 -0.26882,0.13441 0,0.18601 0.12893,0.26881 0.47043,0.26881 0.93354,0 2.92653,-0.0672 2.95696,-0.0672 0.15548,0 2.12251,0.0672 3.8306,0.0672 0.34161,0 0.47042,-0.11331 0.47042,-0.26881 0,-0.0946 -0.0827,-0.13441 -0.26881,-0.13441 -0.28073,0 -0.97496,-0.0735 -1.41128,-0.13441 -0.93014,-0.12516 -1.11495,-0.8442 -1.20966,-1.74729 -0.15548,-1.30558 -0.13441,-3.73714 -0.13441,-6.72036 l 0,-0.73923 c 0,-0.1557 0.046,-0.26882 0.20161,-0.26882 l 3.02416,0.0672 c 0.18602,0 0.34572,0.073 0.40322,0.20162 0.47353,1.03499 1.14302,2.77631 2.08331,4.70424 1.2853,2.63146 1.48315,3.78897 2.82255,4.50264 0.80838,0.43632 1.68549,0.53763 3.42738,0.53763 l 1.47848,0 c 0.55808,0 0.73924,-0.0828 0.73924,-0.26881 0,-0.0946 -0.11324,-0.13785 -0.26881,-0.13441 -0.30781,0.0108 -0.82275,-0.10011 -1.41128,-0.20161 -0.50395,-0.0914 -1.98329,-0.44583 -2.88975,-2.15052 -1.13646,-2.12748 -2.4549,-5.23811 -3.69619,-7.86281 3.24701,-0.88954 5.44348,-3.5814 5.44348,-7.25798 0,-1.69117 -0.91274,-3.16091 -1.61288,-3.83061 -0.51073,-0.47692 -1.92615,-1.81449 -5.91391,-1.81449 -1.46455,0 -4.13088,0.1344 -4.97307,0.1344 -0.36531,0 -2.1615,-0.1344 -3.56179,-0.1344 z m 19.89225,0 c -0.3416,0 -0.47042,0.0794 -0.47042,0.26881 0,0.12172 0.0799,0.20161 0.20161,0.20161 0.28073,0 0.82496,0.006 1.07526,0.0672 1.02485,0.21647 1.28317,0.75921 1.34407,1.81449 0.0609,0.9944 0.0672,1.87349 0.0672,6.72036 l 0,5.44348 c 0,2.98322 -0.0494,5.41478 -0.20161,6.72036 -0.12516,0.90309 -0.25129,1.62215 -0.87364,1.74729 -0.28073,0.0609 -0.66013,0.13441 -0.94085,0.13441 -0.18602,0 -0.26882,0.0396 -0.26882,0.13441 0,0.18601 0.19589,0.26881 0.53763,0.26881 0.93352,0 2.87195,-0.0672 3.02416,-0.0672 0.15892,0 2.11916,0.0672 3.8306,0.0672 0.34163,0 0.47043,-0.11331 0.47043,-0.26881 0,-0.0946 -0.0122,-0.13441 -0.20161,-0.13441 -0.27736,0 -0.97496,-0.0735 -1.41128,-0.13441 -0.93352,-0.12516 -1.11835,-0.8442 -1.20966,-1.74729 -0.15548,-1.30558 -0.13441,-3.73714 -0.13441,-6.72036 l 0,-3.29297 c 0,-0.15548 0.0398,-0.13441 0.13441,-0.13441 l 13.17189,0 c 0.0946,0 0.20161,0.009 0.20161,0.13441 l 0,3.29297 c 0,2.98322 0.0213,5.41478 -0.1344,6.72036 -0.12516,0.90309 -0.25129,1.62215 -0.87365,1.74729 -0.27733,0.0609 -0.66012,0.13441 -0.94085,0.13441 -0.18602,0 -0.26881,0.0396 -0.26881,0.13441 0,0.18601 0.12892,0.26881 0.47042,0.26881 0.93352,0 2.93577,-0.0672 3.09136,-0.0672 0.15549,0 2.11914,0.0672 3.83061,0.0672 0.33823,0 0.47042,-0.11331 0.47042,-0.26881 0,-0.0946 -0.0827,-0.13441 -0.26881,-0.13441 -0.28073,0 -0.97494,-0.0735 -1.41128,-0.13441 -0.93014,-0.12516 -1.11833,-0.8442 -1.20966,-1.74729 -0.15548,-1.30558 -0.13441,-3.73714 -0.13441,-6.72036 l 0,-5.44348 c 0,-4.84687 0.006,-5.72596 0.0672,-6.72036 0.0609,-1.0891 0.30363,-1.6589 1.14246,-1.81449 0.37543,-0.0609 0.58997,-0.0672 0.80644,-0.0672 0.12516,0 0.20161,-0.0799 0.20161,-0.20161 0,-0.18946 -0.12531,-0.26881 -0.47043,-0.26881 -0.93014,0 -2.86857,0.1344 -3.02416,0.1344 -0.15569,0 -2.1615,-0.1344 -3.56178,-0.1344 -0.34161,0 -0.47043,0.0794 -0.47043,0.26881 0,0.12172 0.14368,0.20161 0.26882,0.20161 0.27735,0 0.76115,0.006 1.00805,0.0672 1.02822,0.21647 1.28319,0.75921 1.34407,1.81449 0.0643,0.9944 0.0672,1.87349 0.0672,6.72036 l 0,0.60483 c 0,0.1557 -0.10677,0.20161 -0.20161,0.20161 l -13.17189,0 c -0.0946,0 -0.13441,-0.0459 -0.13441,-0.20161 l 0,-0.60483 c 0,-4.84687 0.006,-5.72596 0.0672,-6.72036 0.0609,-1.0891 0.30366,-1.6589 1.14246,-1.81449 0.37206,-0.0609 0.51937,-0.0672 0.73924,-0.0672 0.12516,0 0.26882,-0.0799 0.26882,-0.20161 0,-0.18946 -0.12871,-0.26881 -0.47043,-0.26881 -0.93351,0 -2.93239,0.1344 -3.09136,0.1344 -0.15226,0 -2.0943,-0.1344 -3.49459,-0.1344 z m 49.0586,0 c -0.34501,0 -0.53763,0.0794 -0.53763,0.26881 0,0.12172 0.14363,0.20161 0.26881,0.20161 0.28073,0 0.82496,0.006 1.07526,0.0672 1.02482,0.21647 1.21261,0.75921 1.27687,1.81449 0.0609,0.9944 0.0672,1.87349 0.0672,6.72036 l 0,5.44348 c 0,2.98322 0.0213,5.41478 -0.13441,6.72036 -0.12516,0.90309 -0.25131,1.62215 -0.87364,1.74729 -0.28073,0.0609 -0.6635,0.13441 -0.94085,0.13441 -0.18602,0 -0.26882,0.0396 -0.26882,0.13441 0,0.18601 0.12548,0.26881 0.47043,0.26881 0.93014,0 2.92315,-0.0672 2.95695,-0.0672 0.15226,0 2.11914,0.0672 3.8306,0.0672 0.34161,0 0.47043,-0.11331 0.47043,-0.26881 0,-0.0946 -0.0122,-0.13441 -0.20161,-0.13441 -0.27735,0 -0.97836,-0.0735 -1.41128,-0.13441 -0.93353,-0.12516 -1.11495,-0.8442 -1.20966,-1.74729 -0.1557,-1.30558 -0.20161,-3.73714 -0.20161,-6.72036 l 0,-0.73923 c 0,-0.1557 0.11327,-0.26882 0.26881,-0.26882 l 3.02416,0.0672 c 0.18602,0 0.34572,0.073 0.40323,0.20162 0.47014,1.03499 1.07581,2.77631 2.0161,4.70424 1.2819,2.63146 1.55375,3.78897 2.88975,4.50264 0.80838,0.43632 1.61829,0.53763 3.36018,0.53763 l 1.54568,0 c 0.55471,0 0.73924,-0.0828 0.73924,-0.26881 0,-0.0946 -0.18038,-0.13785 -0.33602,-0.13441 -0.30778,0.0108 -0.81936,-0.10011 -1.41127,-0.20161 -0.50058,-0.0914 -1.97991,-0.44583 -2.88975,-2.15052 -1.13648,-2.12748 -2.39107,-5.23811 -3.62899,-7.86281 3.24364,-0.88954 5.37628,-3.5814 5.37628,-7.25798 0,-1.69117 -0.84554,-3.16091 -1.54568,-3.83061 -0.51073,-0.47692 -1.99336,-1.81449 -5.98112,-1.81449 -1.46794,0 -4.12748,0.1344 -4.97306,0.1344 -0.36529,0 -2.0977,-0.1344 -3.49458,-0.1344 z m 20.16106,0 c -0.34161,0 -0.47043,0.0794 -0.47043,0.26881 0,0.12172 0.14708,0.20161 0.26882,0.20161 0.28075,0 0.82498,0.006 1.07526,0.0672 1.02147,0.21647 1.21598,0.75921 1.27686,1.81449 0.0643,0.9944 0.0672,1.87349 0.0672,6.72036 l 0,5.44348 c 0,2.98322 0.0213,5.41478 -0.13441,6.72036 -0.12516,0.90309 -0.25129,1.62215 -0.87365,1.74729 -0.28072,0.0609 -0.66349,0.13441 -0.94085,0.13441 -0.18946,0 -0.26881,0.0396 -0.26881,0.13441 0,0.18601 0.12871,0.26881 0.47042,0.26881 0.46675,0 1.19214,-0.0672 1.8145,-0.0672 0.65279,-0.0303 1.21599,0 1.27687,0 0.15892,0 1.18727,0.10698 2.55373,0.20161 1.33941,0.0914 2.96502,0.1344 4.30103,0.1344 5.28321,0 8.13969,-2.1615 9.4757,-3.56178 1.73852,-1.83323 3.36018,-4.81974 3.36018,-8.73647 0,-3.69688 -1.47169,-6.31326 -3.02416,-7.93001 -3.70028,-3.82542 -9.42194,-3.56179 -12.49986,-3.56179 -1.86366,0 -3.79119,0.1344 -4.16662,0.1344 -0.15226,0 -2.16488,-0.1344 -3.56179,-0.1344 z m 75.7384,0 c -0.34161,0 -0.53763,0.0794 -0.53763,0.26881 0,0.12172 0.14368,0.20161 0.26881,0.20161 0.27736,0 0.82836,0.006 1.07526,0.0672 1.02485,0.21647 1.27981,0.75921 1.34407,1.81449 0.0609,0.9944 0.0672,1.87349 0.0672,6.72036 l 0,5.44348 c 0,2.98322 -0.0459,5.41478 -0.20162,6.72036 -0.12515,0.90309 -0.25468,1.62215 -0.87364,1.74729 -0.28413,0.0609 -0.6601,0.13441 -0.94085,0.13441 -0.18602,0 -0.26882,0.0396 -0.26882,0.13441 0,0.18601 0.19598,0.26881 0.53763,0.26881 0.93352,0 2.8593,-0.0672 2.88976,-0.0672 0.15569,0 2.12253,0.0672 3.8306,0.0672 0.34501,0 0.53763,-0.11331 0.53763,-0.26881 0,-0.0946 -0.0828,-0.13441 -0.26882,-0.13441 -0.28073,0 -0.97495,-0.0735 -1.41127,-0.13441 -0.93352,-0.12516 -1.11836,-0.8442 -1.20967,-1.74729 -0.15569,-1.30558 -0.1344,-3.73714 -0.1344,-6.72036 l 0,-0.73923 c 0,-0.1557 0.046,-0.26882 0.20161,-0.26882 l 3.02416,0.0672 c 0.18602,0 0.34234,0.073 0.40322,0.20162 0.47014,1.03499 1.14302,2.77631 2.08331,4.70424 1.28527,2.63146 1.48992,3.78897 2.82255,4.50264 0.81175,0.43632 1.68548,0.53763 3.42738,0.53763 l 1.47848,0 c 0.5581,0 0.73924,-0.0828 0.73924,-0.26881 0,-0.0946 -0.10987,-0.13785 -0.26882,-0.13441 -0.3044,0.0108 -0.82612,-0.10011 -1.41127,-0.20161 -0.50735,-0.0914 -1.98327,-0.44583 -2.88976,-2.15052 -1.13646,-2.12748 -2.4515,-5.23811 -3.69619,-7.86281 3.24704,-0.88954 5.44349,-3.5814 5.44349,-7.25798 0,-1.69117 -0.90937,-3.16091 -1.61289,-3.83061 -0.51072,-0.47692 -1.92615,-1.81449 -5.91391,-1.81449 -1.46794,0 -4.19806,0.1344 -5.04027,0.1344 -0.36528,0 -2.0943,-0.1344 -3.49458,-0.1344 z m 21.16912,0 c -0.34501,0 -0.53763,0.0794 -0.53763,0.26881 0,0.12172 0.14363,0.20161 0.26881,0.20161 0.28073,0 0.82496,0.006 1.07526,0.0672 1.02485,0.21647 1.27981,0.75921 1.34407,1.81449 0.0609,0.9944 0,1.87349 0,6.72036 l 0,5.44348 c 0,2.98322 0.0213,5.41478 -0.13441,6.72036 -0.12172,0.90309 -0.25468,1.62215 -0.87364,1.74729 -0.28073,0.0609 -0.66013,0.13441 -0.94085,0.13441 -0.18602,0 -0.26882,0.0396 -0.26882,0.13441 0,0.18601 0.19936,0.26881 0.53763,0.26881 0.46677,0 1.12833,-0.0369 1.74729,-0.0672 0.62234,0 1.15511,0 1.27687,0 0.90309,0 1.85637,0.006 3.15857,0.0672 1.30557,0.0305 2.93895,0.13441 5.17467,0.13441 1.64721,0 1.73583,-0.16 1.9489,-0.87365 0.2503,-0.90309 0.47043,-2.74636 0.47043,-3.09136 0,-0.34161 -0.0461,-0.47043 -0.20161,-0.47043 -0.18602,0 -0.23837,0.15622 -0.26882,0.40322 -0.0914,0.59191 -0.40393,1.3879 -0.80644,1.8817 -0.7441,0.90309 -2.11281,0.87365 -3.7634,0.87365 -2.42513,0 -3.26957,-0.17484 -3.7634,-0.67204 -0.56145,-0.56147 -0.67203,-2.55405 -0.67203,-7.12357 l 0,-5.51069 c 0,-4.84687 0.003,-5.72596 0.0672,-6.72036 0.0609,-1.0891 0.30658,-1.6589 1.20967,-1.81449 0.37543,-0.0609 0.85878,-0.0672 1.07525,-0.0672 0.1286,0 0.20161,-0.0799 0.20161,-0.20161 0,-0.18946 -0.12868,-0.26881 -0.47042,-0.26881 -0.93014,0 -3.20459,0.1344 -3.36018,0.1344 -0.15548,0 -2.0977,-0.1344 -3.49458,-0.1344 z m -215.11856,0.87364 c 3.04409,0 4.16662,2.79559 4.16662,5.37629 0,1.27514 -0.42247,2.41447 -1.07526,3.15856 -0.65279,0.7475 -1.08403,0.80645 -2.82255,0.80645 -1.15338,0 -1.76288,-0.10409 -1.9489,-0.13441 -0.1557,-0.0643 -0.20161,-0.11619 -0.20161,-0.33602 l 0,-8.33324 c 0,-0.18602 0.12256,-0.27176 0.40322,-0.33602 0.4972,-0.12516 1.13687,-0.20161 1.47848,-0.20161 z m 36.15551,0.13441 c 0.96059,-0.0108 3.08368,-0.17585 4.77145,1.54568 1.69116,1.7216 1.74729,3.85396 1.74729,4.90586 0,2.93586 -2.41586,5.17467 -5.51069,5.17467 -1.27852,0 -2.6918,-0.2569 -3.15857,-0.53762 -0.15569,-0.0914 -0.20161,-0.18043 -0.20161,-0.33602 l 0,-10.14774 c 0,-0.18946 0.11314,-0.33894 0.26882,-0.40322 0.3078,-0.0914 1.14979,-0.1915 2.08331,-0.20161 z m 68.88363,0 c 0.9606,-0.0108 3.08367,-0.17585 4.77146,1.54568 1.69116,1.7216 1.74729,3.85396 1.74729,4.90586 0,2.93586 -2.35204,5.17467 -5.44349,5.17467 -1.27852,0 -2.6918,-0.2569 -3.15857,-0.53762 -0.15569,-0.0914 -0.26881,-0.18043 -0.26881,-0.33602 l 0,-10.14774 c 0,-0.18946 0.11314,-0.33894 0.26881,-0.40322 0.31118,-0.0914 1.15317,-0.1915 2.08331,-0.20161 z m 95.89947,0 c 0.96059,-0.0108 3.08366,-0.17585 4.77145,1.54568 1.69116,1.7216 1.8145,3.85396 1.8145,4.90586 0,2.93586 -2.41927,5.17467 -5.5107,5.17467 -1.28192,0 -2.69179,-0.2569 -3.15856,-0.53762 -0.1557,-0.0914 -0.20161,-0.18043 -0.20161,-0.33602 l 0,-10.14774 c 0,-0.18946 0.0493,-0.33894 0.20161,-0.40322 0.31118,-0.0914 1.14979,-0.1915 2.08331,-0.20161 z m -75.46959,0.0672 c 3.69689,0 7.29261,0.41667 10.21494,3.49459 1.27515,1.33603 2.95696,3.91563 2.95696,7.86281 0,2.86143 -0.8698,5.87327 -2.48653,7.4596 -1.83323,1.83322 -4.50389,2.88975 -7.39239,2.88975 -3.66983,0 -4.9032,-0.68834 -5.30908,-1.27687 -0.2469,-0.34161 -0.30557,-1.57417 -0.33602,-2.35212 -0.0303,-0.58851 -0.0672,-3.42596 -0.0672,-6.72036 l 0,-3.8978 c 0,-2.39131 0.0367,-5.53067 0.0672,-6.58595 0,-0.34163 0.0586,-0.54687 0.33602,-0.67203 0.25029,-0.12516 1.39374,-0.20162 2.0161,-0.20162 z m 314.51261,0.94085 c 3.51762,0.0828 5.82611,1.02593 8.40044,3.42739 -2.2887,-0.0262 -4.13632,0.13931 -5.91391,0.53762 l -2.48653,-0.67203 -2.01611,-3.22577 c 0.65767,-0.0488 1.32085,-0.0859 2.01611,-0.0672 z m -30.57762,0.20161 c -0.24801,1.27775 -0.81594,3.22554 -1.07525,3.83061 0.15397,0.15784 0.94328,1.4431 1.14246,2.28492 -1.19885,0.0193 -2.33045,0.0814 -3.36018,0.20161 -1.14248,-0.85685 -3.3982,-2.52632 -4.43543,-3.29298 2.15716,-1.72122 4.74444,-2.90016 7.7284,-3.02416 z m 1.7473,0 c 3.04409,0.18796 5.23876,0.86987 6.85476,2.01611 l 0.20161,1.54568 c 0,0 -0.80997,2.10497 -1.41128,3.36018 -0.917,-0.25555 -1.84542,-0.47705 -2.82254,-0.60483 -0.22549,-0.56748 -0.46821,-1.12145 -0.80645,-1.47848 -0.76665,-0.80799 -1.34493,-1.2028 -2.35212,-1.68009 l 0.20161,-1.61288 0.13441,-1.54569 z m 24.93251,0.13441 c 0.54869,0.40589 1.15904,1.16278 1.47848,1.47848 0.74786,0.74786 1.22846,1.35953 1.20967,2.41933 -0.004,0.38709 -0.0889,0.71494 -0.20162,1.00805 l -1.00805,0.40322 c -0.45849,-0.62386 -0.85749,-1.00119 -1.61288,-1.47848 -0.54118,-0.33823 -2.8464,-1.68406 -3.7634,-2.21771 1.13121,-0.82305 2.45842,-1.31599 3.8978,-1.61289 z m -351.47455,1.9489 c 0.0778,0 0.12382,0.10265 0.20161,0.33602 l 2.95695,8.40045 c 0.0305,0.12172 0.0213,0.20161 -0.1344,0.20161 l -5.91392,0 c -0.0914,0 -0.12806,-0.046 -0.0672,-0.20161 l 2.68814,-8.40045 c 0.0778,-0.23337 0.19103,-0.33602 0.26882,-0.33602 z m 95.69785,0 c 0.0774,0 0.1255,0.10265 0.20161,0.33602 l 2.95695,8.40045 c 0.0305,0.12172 0.0213,0.20161 -0.1344,0.20161 l -5.91391,0 c -0.0946,0 -0.19871,-0.046 -0.13441,-0.20161 l 2.75534,-8.40045 c 0.0777,-0.23337 0.19144,-0.33602 0.26882,-0.33602 z m 220.29323,1.8817 c 0.75539,0.39086 1.26822,0.77991 2.01611,1.41128 0.56747,0.48103 0.92691,0.77702 1.34407,1.27687 -2.26615,0.49231 -4.34899,1.39112 -6.72036,2.75534 -0.006,-0.15398 -0.0334,-0.34595 -0.0672,-0.53763 l -0.0672,-0.40322 c 0.90571,-1.61976 2.08528,-3.16474 3.49458,-4.50264 z m 19.48903,0.20161 c 1.02597,1.42059 1.75039,3.13401 2.41933,5.17468 -1.58968,-0.87565 -2.96644,-1.52003 -4.36823,-2.01611 l 1.9489,-3.15857 z m 13.84393,0.47043 c 0.38757,-0.0123 0.75913,0.15239 1.14246,0.40322 0.48855,0.31944 0.697,0.65348 0.87365,1.20966 -3.00277,1.54461 -4.80436,3.06945 -7.19078,5.84671 -0.11269,-2.09705 -0.5109,-4.38279 0.53762,-6.72035 0.47353,-0.19914 0.98905,-0.32475 1.61289,-0.33602 0.76292,-0.0107 2.23761,-0.17813 2.62094,-0.33602 0.14092,-0.0573 0.27404,-0.0631 0.40322,-0.0672 z m 13.10469,1.61288 c 0.89797,0.0248 1.77585,0.12413 2.68814,0.26882 -0.78919,0.35326 -1.30581,0.75692 -2.0161,1.47848 -0.70279,0.72156 -1.00496,1.2636 -1.47848,2.15051 -0.38709,0.72156 -0.5509,1.10377 -0.80644,1.8817 l -1.54569,-1.14246 c -1.18005,-0.86812 -1.88167,-1.29697 -3.02415,-2.21772 -0.61634,-0.49608 -1.03457,-0.82212 -1.54569,-1.27686 2.40428,-0.80612 5.03453,-1.21681 7.72841,-1.14247 z m 4.03221,0.47043 c 0.95457,0.21795 1.93893,0.51285 2.88976,0.87365 1.29654,0.49231 2.4644,1.20811 3.56179,2.0161 -0.93954,0.87191 -1.57197,1.38717 -2.68815,2.21772 -0.49982,0.37204 -0.76199,0.59133 -1.27686,0.94085 -1.04477,-1.33416 -1.52379,-2.27804 -2.01611,-3.89781 -0.25178,-0.83431 -0.39527,-1.38762 -0.47043,-2.15051 z m -13.10469,1.20966 c 0.009,1.01094 0.11766,1.68429 0.40322,2.75535 0.18043,0.67646 0.38686,1.07459 0.60484,1.74729 0.3044,0.93954 0.42775,1.461 0.67203,2.41933 -1.52205,-0.54118 -2.38657,-0.82302 -3.96501,-1.14246 -1.07859,-0.21798 -1.72892,-0.29049 -2.82255,-0.40322 -0.0563,0.45849 -0.0563,0.68397 0,1.14246 0.12022,0.9508 0.89952,1.32659 0.94085,2.28492 0.0262,0.54118 -0.0255,0.89642 -0.20161,1.41127 l -4.90586,-1.34407 c 0.52989,-2.04066 1.57637,-3.84428 3.15857,-5.17467 1.7325,-1.46192 3.81178,-2.75666 6.11552,-3.6962 z m -32.05609,0.67204 c -1.95049,1.65357 -3.56043,3.30446 -4.90586,4.97306 -0.0338,-0.40212 -0.0404,-0.79205 -0.13441,-1.27687 -0.0639,-0.31567 -0.44612,-0.98904 -0.73924,-1.61288 2.1008,-1.23644 4.2086,-2.03445 5.77951,-2.08331 z m -407.58952,0.20161 c 0.46677,0 2.01682,0.003 2.41933,0.0672 0.74749,0.0914 1.49845,0.22379 2.55373,0.94085 2.39471,1.64719 3.02416,4.3157 3.02416,6.18273 0,3.51086 -2.69059,4.43543 -4.36823,4.43543 -0.55808,0 -1.91654,-0.0679 -2.75534,-0.47042 -0.96397,-0.46675 -0.91673,-0.89728 -1.00806,-2.41933 -0.0303,-0.46675 -0.0672,-4.32905 -0.0672,-6.72035 l 0,-1.8145 c 0,-0.15548 0.0764,-0.20161 0.20161,-0.20161 z m 415.98996,1.07526 c 1.22515,0 2.39389,0.0918 3.42738,0.33601 l 0,0.73924 c -0.17655,1.14999 -0.38883,1.76276 -0.87364,2.82255 -0.3495,0.76666 -0.5792,1.19773 -1.07526,1.8817 -0.40589,-0.35326 -4.30498,-3.28547 -4.83865,-3.29297 -0.3683,1.11239 -1.94026,5.01484 -2.68815,6.04832 l -0.26881,0.0672 c -0.28939,-1.08233 -0.63709,-1.75282 -1.41127,-2.62094 -0.64264,-0.71782 -1.08829,-1.04629 -1.94891,-1.47848 l 0.26882,-0.87364 0.1344,-0.94085 c 2.67957,-1.78512 5.69259,-2.68814 9.27409,-2.68814 z m 44.21994,0.47042 c 3.44245,3.00276 5.34757,7.4288 4.03221,11.55901 -1.67613,-1.78512 -3.38955,-3.18906 -5.17467,-4.23382 -0.51488,-0.88692 -0.70165,-1.63542 -0.73924,-2.75535 -0.0563,-1.92793 0.53627,-3.35972 1.8817,-4.56984 z m -18.34657,0.33602 c 1.02597,0.61257 1.58082,0.9656 2.48653,1.74729 1.16126,1.00343 1.8242,1.77357 2.62094,2.88975 -1.62353,0.11656 -3.14549,0.35215 -4.56984,0.73924 0.0108,-0.48855 0.0305,-0.94437 0,-1.54568 -0.0751,-1.52205 -0.20686,-2.34614 -0.53763,-3.8306 z m 8.60205,0 c 0.85688,0.19548 1.33919,0.40389 2.08331,0.87365 0.97337,0.61259 1.43317,1.13626 2.08331,2.08331 0.62763,0.92074 0.96915,1.53153 1.20967,2.55373 -1.59345,-0.52989 -3.31816,-0.8356 -5.17468,-0.94085 0.0151,-0.64264 0.0151,-1.05205 0,-1.74729 -0.0262,-1.10491 -0.0926,-1.72142 -0.20161,-2.82255 z m -28.76311,0.33602 c 2.29246,1.05603 3.98378,2.75001 5.10746,4.70425 -0.13526,0.21053 -0.27124,0.42023 -0.47042,0.67203 -0.28187,0.36079 -0.48324,0.5467 -0.80644,0.87365 -0.36456,-0.24052 -0.52458,-0.40477 -0.80645,-0.73924 -0.6464,-0.77795 -1.86733,-3.51934 -2.35212,-4.30103 -0.28563,-0.45475 -0.49918,-0.82257 -0.67203,-1.20966 z m -21.97557,1.00805 c 0.0488,0.26684 0.10011,0.5467 0.20162,0.87365 0.1615,0.5036 0.89685,1.76451 1.34407,2.55373 -0.89068,1.25521 -1.69732,2.56741 -2.48653,3.89781 -0.67647,-0.65017 -1.11879,-1.10797 -1.8817,-1.8145 -0.27811,-0.25554 -1.19904,-0.90104 -1.68009,-1.27687 1.25899,-1.56714 2.84154,-3.01618 4.50263,-4.23382 z m 20.29548,0.33602 c 1.35669,1.05981 2.02868,1.84234 2.95695,3.29297 0.62008,0.96586 1.71235,3.16827 2.48653,5.10747 0.13162,-0.4209 0.27456,-0.85549 0.53763,-1.34407 0.48481,-0.90195 0.91012,-1.42233 1.61289,-2.01611 1.02222,2.59688 1.20237,5.44257 0.60483,7.86282 -2.70586,-3.79949 -5.80555,-6.01626 -9.81172,-6.92197 l 1.61289,-5.98111 z m -14.85199,1.41127 c 0.21054,0.66894 0.35017,1.1798 0.47043,1.74729 l 2.28492,2.21772 0.67203,1.07526 c -1.74378,0.61634 -3.33209,1.46011 -4.77145,2.55373 -0.41716,-0.6276 -1.12323,-1.63654 -1.20966,-2.0161 -0.0826,-0.37581 -0.58294,-1.29631 -1.07526,-1.7473 l -0.0672,0 c 1.18005,-1.48824 2.41089,-2.7633 3.69619,-3.8306 z m 8.33324,0.40322 c 0.79672,0.63888 1.24281,1.01776 1.8817,1.8145 0.60131,0.75163 0.97201,1.30915 1.34407,2.08331 -0.80799,-0.10516 -1.67058,-0.1829 -2.55373,-0.20161 -1.09362,-0.0194 -2.14011,0.0771 -3.15857,0.26881 l 1.68009,-2.88975 0.80644,-1.07526 z m 24.26048,0.67204 c 0.41482,0.0545 0.79584,0.20213 1.27687,0.40322 0.82305,0.34574 1.29212,0.66053 1.8145,1.27687 -1.49951,0.54492 -2.88511,1.24856 -4.16662,2.15051 -0.50361,-1.77759 -0.74191,-3.57551 -0.33602,-3.7634 0.51675,-0.0696 0.99646,-0.12169 1.41127,-0.0672 z m -43.5479,2.82255 c 0.24428,0.60507 0.49363,1.00029 0.94085,1.61288 0.40589,0.55245 1.74196,1.39272 2.55374,1.94891 -0.87941,1.66486 -1.52755,3.20054 -2.01611,4.77145 l -3.62899,0.87364 c -0.43595,-2.81485 0.034,-5.57387 1.68009,-8.46764 0.14279,-0.25178 0.30881,-0.4912 0.47042,-0.73924 z m 36.89475,0.26881 c 1.23644,0.31568 1.97807,0.47243 3.22577,0.73924 0.76292,0.16172 1.19771,0.20824 1.8817,0.33602 -2.16468,1.62353 -4.01406,3.78282 -5.6451,6.51874 -0.37206,-1.28904 -0.61941,-2.70093 -0.67203,-4.16662 l 1.68009,0.47043 c -0.0262,-0.54494 -0.0817,-0.86634 -0.13441,-1.41128 -0.0865,-0.98087 -0.17067,-1.51316 -0.33602,-2.48653 z m 17.94335,0.40322 0.47042,0 c 0.11656,1.43186 0.0276,2.33488 -0.20161,3.83061 -0.15784,1.06355 -0.28163,1.66217 -0.60483,2.68814 l -4.23382,-3.02416 -0.80644,4.23382 c -1.07107,-0.25931 -1.66173,-0.36851 -2.75535,-0.53763 -1.11618,-0.1729 -1.7623,-0.25709 -2.88975,-0.33601 0.0151,0.76289 0.0705,1.18975 0.1344,1.9489 0.0639,0.75539 0.085,1.13384 0.20162,1.8817 -0.9809,0.5675 -1.54235,0.86014 -2.62094,1.20966 -0.93201,0.30064 -1.51317,0.40985 -2.48653,0.53763 -0.19914,0.44722 0.40255,0.69148 1.07525,1.14246 0.47355,0.31567 0.56172,0.70982 0.87365,1.20966 -0.0301,0.28561 0.0577,0.61899 -0.20161,0.73924 -0.94707,0.45099 -1.45392,0.60217 -2.35213,1.00806 l -2.08331,0.94085 c 0.0488,-0.42843 0.14161,-0.84094 0.20161,-1.27687 0.47355,-3.44246 3.91478,-9.15865 7.59401,-11.96223 0.51863,0.10516 0.95188,0.24494 1.54568,0.47042 0.89444,0.33823 1.42476,0.60881 2.21771,1.14246 0.0376,-0.78921 -0.007,-1.22691 -0.0672,-2.0161 -0.0488,-0.67647 -0.0965,-1.17606 -0.20161,-1.7473 0.95833,-0.48479 1.91264,-0.88646 2.88975,-1.20966 0.44722,0.20666 0.84425,0.44941 1.34407,0.80644 0.74036,0.52613 1.10135,0.91763 1.68009,1.61289 l 1.27687,-3.29298 z m 1.14246,0 c 1.958,-0.0262 4.00256,0.23475 6.24993,0.87365 l 0.67204,0.20161 0.87364,0.80644 c -0.96584,0.59757 -1.52908,0.96184 -2.35212,1.7473 -0.84558,0.80801 -1.23154,1.37875 -1.8817,2.35212 -0.83432,-1.22141 -1.33169,-1.948 -2.08331,-3.22577 -0.63888,-1.07859 -0.96737,-1.76695 -1.47848,-2.75535 z m -49.66342,0.53763 0.67203,0.20161 c 0.13914,0.71406 0.33381,1.10466 0.67204,1.74729 0.30817,0.58628 0.51619,0.89686 0.94085,1.34408 -2.55554,2.2173 -4.48339,5.07005 -5.7123,7.93001 0.0413,-4.63379 0.93573,-7.7129 3.42738,-11.22299 z m 12.76867,0.67204 1.20967,1.27686 c 0.19913,0.78546 0.19913,1.2941 0,2.08331 -0.0602,0.23301 -0.13022,0.35723 -0.20162,0.53763 -0.54868,-0.2969 -1.14598,-0.48455 -1.74729,-0.60483 -0.44345,-0.0901 -0.85594,-0.15279 -1.27686,-0.20161 0.10516,-0.47728 0.16085,-0.94438 0.1344,-1.54568 -0.0194,-0.55621 -0.0775,-0.90438 -0.20161,-1.34407 0.68023,-0.094 1.37676,-0.19021 2.08331,-0.20161 z m 2.82255,0.20161 0.26881,0.0672 c 0.54494,0.0865 1.03834,0.14852 1.54569,0.26882 0.35326,0.80801 0.98328,2.20004 1.34407,2.62093 0.29688,0.34576 0.48324,0.55421 0.80644,0.87365 0,0 -0.74588,1.3476 -0.87365,1.9489 -0.25556,1.22891 -0.0815,2.3835 0.40323,3.29298 l -2.41933,-1.68009 c -0.20667,0.66896 -0.40744,1.33809 -0.33602,1.68009 0.27808,1.35669 0.4375,2.18255 0.33602,3.56179 -0.0527,0.66143 -0.13359,1.06043 -0.26882,1.61288 -2.33006,-0.3758 -4.70599,-0.13596 -6.72035,0.67204 -0.10903,-0.73283 -0.10581,-1.25653 0,-2.08331 0.12408,-0.96208 0.53298,-1.45724 0.67203,-2.41933 0.10151,-0.72156 -0.0455,-1.1639 0.0672,-1.8817 0.0828,-0.52615 0.33468,-2.24821 0.53763,-3.29298 1.80015,-0.0901 3.62122,0.11966 5.37628,0.67204 -0.33823,-0.44722 -0.78081,-0.93818 -1.27687,-1.34407 l 0,-1.74729 c 0.1428,-0.59757 0.22325,-0.94064 0.33602,-1.54568 0.094,-0.51112 0.1414,-0.83341 0.20161,-1.27687 z m -6.24993,0.20161 c 0.16538,0.41716 0.23499,0.81793 0.26881,1.34407 0.0301,0.50735 0.039,0.86724 -0.0672,1.27687 -2.92384,-0.0639 -5.31413,0.83605 -7.39239,2.0161 1.6085,-2.34883 4.18049,-3.94554 7.19078,-4.63704 z m 49.39461,0.40322 c 2.28496,1.16878 4.03838,2.81257 5.37628,4.90586 -0.23301,0.46225 -0.5133,0.92315 -0.80644,1.34407 -0.65016,0.91322 -1.09913,1.37347 -2.01611,2.01611 0.0376,-0.82305 -0.37184,-1.56291 -0.60483,-2.35213 -0.28563,-0.9696 -0.47528,-1.08409 -0.87364,-2.0161 -0.62385,-1.46569 -0.92868,-2.42462 -1.07526,-3.89781 z m -37.23077,1.27687 c 2.2812,1.30783 3.95372,3.26486 5.10747,5.84671 -0.13161,0.37206 -0.36386,0.69945 -0.67203,1.07525 -0.21419,0.26684 -0.33424,0.39439 -0.60483,0.60483 l -2.35213,-2.0161 c 0.12774,-0.7366 -0.0157,-1.28414 -0.47042,-1.8817 -0.35703,-0.46976 -0.64219,-0.71206 -1.20967,-0.87365 -0.0677,-0.65393 -0.0677,-1.02616 0,-1.68009 0.0452,-0.42466 0.11516,-0.74455 0.20161,-1.07525 z m 28.49431,0.47042 c 0.49231,0.51486 0.74033,0.82126 1.14246,1.41128 0.48481,0.71782 1.20923,2.56612 1.27687,2.95695 0.70278,-0.73659 1.12674,-1.19727 1.81449,-1.9489 0.6727,-0.73662 1.02616,-1.13382 1.68009,-1.8817 0.75163,0.54494 2.05808,2.13393 2.48653,2.95696 0.54868,1.04852 1.58947,5.21157 1.74729,5.84671 l -0.60483,-0.47043 c -0.90571,-0.68023 -1.77114,-1.23287 -2.68814,-1.68009 -0.0488,-0.70653 -0.19978,-1.29033 -0.47043,-2.08331 -0.28186,-0.81926 -0.53076,-1.29078 -1.00805,-2.0161 -0.24051,0.86437 -0.38642,1.36463 -0.67203,2.21771 l -0.26882,0.94085 c -3.20194,-0.88691 -6.59208,-0.53567 -10.21494,0.87365 -2.90504,1.13119 -5.12646,2.9324 -6.78756,4.97306 -0.57122,-0.33447 -0.85549,-0.56791 -1.34407,-1.07526 -0.63887,-0.66143 -0.96824,-1.11082 -1.34407,-1.9489 0.97713,-0.3683 1.5837,-0.53298 2.62094,-0.67203 0.77795,-0.10516 1.23065,-0.0934 2.01611,-0.0672 -0.0602,-0.6539 -0.0931,-1.02616 -0.13441,-1.68009 -0.0413,-0.67646 -0.11183,-1.07459 -0.13441,-1.74729 0.9621,-0.0413 1.53947,-0.0245 2.48653,0.13441 0.84182,0.13527 1.28283,0.24825 2.08331,0.53763 0.24804,-0.55621 0.82855,-3.7457 0.87365,-4.16662 0.44722,0.36079 3.80406,3.11256 4.43543,3.29297 -0.004,-0.67646 -0.0343,-1.07833 0.0672,-1.74729 0.18408,-1.20261 0.42597,-1.85959 0.94085,-2.95696 z m -40.85976,3.02416 c -0.24428,1.55962 -0.3643,2.61737 -0.60483,4.30103 l -0.33602,2.08331 -1.07526,-0.13441 c -0.61631,-0.3946 -0.95941,-0.6318 -1.54568,-1.07525 -1.21764,-0.91698 -1.8755,-1.54278 -2.82255,-2.55374 1.86028,-1.32661 4.05054,-2.23761 6.38434,-2.62094 z m 55.84615,1.74729 c 0.42845,0.84935 0.86392,1.73734 1.20966,2.68815 1.48072,4.07384 1.71527,6.81558 -0.80644,11.08858 -0.42092,-2.58937 -1.15283,-4.56958 -2.41933,-6.31713 0.0194,-0.85685 0.14065,-1.63211 0.33602,-2.68814 0.26684,-1.45442 1.02995,-3.30954 1.68009,-4.77146 z m -71.10136,0.80645 c 0.27576,-0.0164 0.52084,-0.0301 0.80645,0 -0.39086,1.61224 -0.68531,3.34312 -0.94085,5.37628 -0.90571,-1.67989 -1.55431,-3.28235 -1.94891,-4.90586 0.37206,-0.15398 0.66142,-0.2458 1.14246,-0.33602 0.33635,-0.062 0.66509,-0.11797 0.94085,-0.1344 z m 7.19078,1.47847 c 0.16538,0.88692 0.33426,1.53904 0.60484,2.55374 0.3232,1.21388 0.51573,1.87041 1.00805,3.02416 -0.74412,-0.14279 -1.12631,-0.16451 -1.8817,-0.13441 -0.68023,0.0301 -1.07083,0.24295 -1.74729,0.20161 -0.55997,-0.0338 -0.97532,-0.0772 -1.41128,-0.26881 0.93204,-2.24361 2.26613,-4.23382 3.42738,-5.37629 z m 49.32741,0.73924 c 0.48481,-0.004 0.98616,0.0147 1.47848,0.0672 0.63513,1.33039 1.41127,3.22577 1.41127,3.22577 l 1.47848,4.63704 c -0.49984,-0.24804 -1.06795,-0.45825 -1.61289,-0.60483 -2.42775,-0.65391 -4.76059,-0.55341 -6.98916,0.13441 -0.63137,-0.80801 -2.21772,-1.54568 -2.21772,-1.54568 -0.60883,-0.3232 -2.5692,-1.06928 -3.62899,-1.41128 1.70243,-1.67989 3.67163,-2.9408 5.7123,-3.69619 0.52238,0.25554 0.88889,0.55332 1.41127,1.00805 0.69901,0.61634 1.01999,1.00648 1.47848,1.8145 0.34576,-0.74036 0.573,-1.18599 0.87365,-1.94891 0.26683,-0.68397 0.41317,-1.09381 0.60483,-1.68009 z m -32.72813,0.0672 c 0.51111,0.2518 0.81838,0.47195 1.27687,0.80644 0.3495,0.25555 0.55795,0.37514 0.87364,0.67204 0.71404,-0.30817 1.17098,-0.39991 1.94891,-0.33602 0.60507,0.0488 1.00074,0.19982 1.54568,0.47042 -0.86814,0.6727 -1.34341,1.08079 -2.01611,1.94891 -0.49231,0.63513 -0.74829,1.09712 -1.07525,1.74729 -0.62011,-0.33449 -1.29874,-0.6035 -1.94891,-0.80644 -0.21795,-0.7441 -0.28296,-1.34208 -0.40322,-2.21772 -0.12021,-0.88317 -0.20892,-1.39424 -0.20161,-2.28492 z m 35.81949,0.26881 c 0.48856,0.11656 0.98616,0.2938 1.47848,0.47043 2.32253,0.83431 4.24,2.41399 5.57789,4.36823 -0.25554,0.42842 -0.52745,0.75868 -0.94085,1.20966 -1.03349,1.12745 -1.89871,1.7274 -3.29297,2.48653 -0.22174,-0.16537 -0.44277,-0.32761 -0.67203,-0.47042 -0.0226,-1.07483 -0.0245,-2.08374 -0.26882,-3.15857 -0.45472,-2.0294 -0.9384,-3.25229 -1.8817,-4.90586 z m -50.53707,0.20161 c 1.45065,0.43595 2.21682,0.80113 3.49459,1.61289 1.06356,0.67646 2.05013,0.85861 2.55373,2.0161 0.12774,0.30443 0.16024,0.52834 0.20161,0.80645 -1.86028,0.85311 -3.31772,2.22784 -4.09941,4.09941 -0.10903,0.80799 -0.14946,1.2678 -0.13441,2.08331 0.0226,1.02973 0.0583,1.6814 0.26881,2.62094 -0.18042,0.22925 -0.36851,0.42776 -0.53762,0.67204 l -1.68009,-2.08331 -1.68009,-0.73924 c 0.24428,-0.6201 0.8301,-1.72209 1.20966,-2.15052 -0.69526,-0.3044 -1.56226,-2.08838 -1.8817,-3.02416 0.89819,0.14667 1.44642,0.15753 2.35213,0.0672 0.60883,-0.0602 0.95564,-0.10718 1.54568,-0.26882 l -1.61289,-5.7123 z m 22.7148,1.27687 c -0.15397,1.55587 -0.3192,2.42793 -0.60483,3.96501 -0.26683,1.43938 -0.45694,2.33619 -0.80644,3.62899 -1.00719,-1.63854 -2.11667,-2.76883 -3.29298,-3.56179 0.89068,-0.93577 1.51274,-1.47648 2.55374,-2.35212 0.80425,-0.67647 1.2899,-1.07126 2.15051,-1.68009 z m -469.82,1.27687 c -0.50398,0 -0.67204,0.72666 -0.67204,3.15856 l -0.0672,35.68509 c 0,5.67217 -0.32245,7.49368 -1.8817,7.93002 -0.93692,0.31115 -2.05314,0.40322 -2.55374,0.40322 -0.31118,0 -0.47042,0.0857 -0.47042,0.33602 0,0.43634 0.38232,0.53762 1.00805,0.53762 2.80395,0 5.41626,-0.20161 5.98112,-0.20161 0.56823,0 3.03788,0.20161 6.58595,0.20161 0.74749,0 1.14246,-0.16563 1.14246,-0.53762 0,-0.25028 -0.15925,-0.33602 -0.47043,-0.33602 -0.55808,0 -1.97475,-0.092 -3.15857,-0.40322 -1.67763,-0.5006 -2.29416,-2.14729 -2.41932,-7.25799 l -0.80645,-29.83837 c 1.9922,2.24247 9.04199,10.08326 16.26326,17.87614 6.59554,7.10289 15.57664,16.30956 16.26326,16.9353 3.3113,3.30452 4.00206,3.96501 4.50264,3.96501 0.44309,0 0.60483,-0.32252 0.60483,-4.43544 l 0.13441,-36.49153 c 0,-3.74086 0.22509,-5.14157 2.28492,-5.57789 0.7475,-0.18602 1.1673,-0.20161 1.47848,-0.20161 0.43631,0 0.73924,-0.15636 0.73924,-0.40322 0,-0.37544 -0.45585,-0.47043 -1.14246,-0.47043 -2.55705,0 -4.61909,0.20161 -5.30909,0.20161 -0.68999,0 -3.71817,-0.20161 -6.51874,-0.20161 -0.74412,0 -1.20966,0.095 -1.20966,0.47043 0,0.24692 0.0341,0.40322 0.47042,0.40322 0.4972,0 1.97181,0.0857 3.09136,0.33602 1.92792,0.4972 2.35505,1.86527 2.41933,5.91391 l 0.67204,31.65287 c -1.99559,-2.05645 -8.75659,-9.65757 -14.91919,-16.26326 -9.58215,-10.28565 -18.88813,-20.30867 -19.82505,-21.37073 -0.62911,-0.62236 -1.71712,-2.0161 -2.21771,-2.0161 z m 209.94388,0 c -7.92139,0 -12.90308,4.55304 -12.90308,11.22299 0,4.23806 1.52594,8.15324 8.13163,13.57512 l 2.75535,2.28492 c 5.36437,4.42745 7.19077,6.92405 7.19077,11.22299 0,3.99114 -2.95474,8.26604 -8.93807,8.26604 -4.18055,0 -8.27337,-1.70704 -9.20688,-6.31714 -0.18602,-0.87603 -0.20161,-1.79067 -0.20161,-2.35212 0,-0.5006 -0.0312,-0.67204 -0.40323,-0.67204 -0.31455,0 -0.47674,0.32146 -0.53762,1.00806 -0.0609,0.99779 -0.26882,3.47082 -0.26882,6.58594 0,1.68442 0.0682,1.98301 0.94085,2.41933 2.55365,1.2447 5.40078,1.68009 8.33324,1.68009 3.36205,0 6.72631,-0.75051 9.4085,-2.62094 4.29894,-3.05424 5.30908,-7.79232 5.30908,-10.34934 0,-4.98556 -1.78312,-8.85307 -9.13968,-14.65038 l -1.7473,-1.41127 c -5.98335,-4.67776 -7.594,-6.92894 -7.594,-10.48376 0,-4.54924 3.35889,-7.19078 7.66121,-7.19078 5.73643,0 7.42017,2.60636 7.79561,3.29298 0.37206,0.68661 0.74216,2.34386 0.80644,3.09136 0.0609,0.4972 0.16559,0.80644 0.53763,0.80644 0.31118,0 0.40322,-0.41348 0.40322,-1.41127 0,-4.23806 0.26882,-6.27477 0.26882,-6.58595 0,-0.31116 -0.10422,-0.47042 -0.60484,-0.47042 -0.4972,0 -1.0339,-0.0219 -2.21771,-0.26882 -1.55925,-0.37543 -3.35098,-0.67203 -5.77951,-0.67203 z m 38.70925,0 c -0.2503,0 -0.47968,0.83422 -0.60484,1.20966 -0.12516,0.4972 -1.41127,5.8292 -1.41127,6.45154 0,0.37546 0.15,0.60483 0.33602,0.60483 0.25027,0 0.41881,-0.17139 0.60483,-0.67203 0.18946,-0.43632 0.38864,-0.82305 1.07526,-1.8817 0.99439,-1.49839 2.45113,-1.95523 6.31713,-2.01611 l 9.27409,-0.1344 0,26.41099 c 0,5.98335 -0.0249,10.88999 -0.33602,13.50791 -0.2503,1.80618 -0.56642,3.18046 -1.8145,3.42738 -0.56145,0.1286 -1.32361,0.26882 -1.88169,0.26882 -0.37544,0 -0.47043,0.15004 -0.47043,0.33602 0,0.37206 0.32144,0.53762 1.00805,0.53762 1.87043,0 5.80435,-0.20161 6.11553,-0.20161 0.31118,0 4.23829,0.20161 7.6612,0.20161 0.68662,0 0.94085,-0.22649 0.94085,-0.53762 0,-0.18602 -0.0984,-0.33602 -0.47042,-0.33602 -0.56146,0 -1.95329,-0.14026 -2.82255,-0.26882 -1.86706,-0.24692 -2.23331,-1.6212 -2.41933,-3.42738 -0.3078,-2.61792 -0.26881,-7.52456 -0.26881,-13.50791 l 0,-26.41099 7.79561,0.1344 c 5.97318,0.12516 7.47516,1.55695 7.6612,3.42738 l 0.0672,0.67204 c 0.0643,0.87263 0.21981,1.07526 0.53763,1.07526 0.25368,0 0.40322,-0.24499 0.40322,-0.80645 0,-0.68661 0.20162,-4.98433 0.20162,-6.85476 0,-0.37544 -0.0181,-0.73924 -0.33602,-0.73924 -0.25368,0 -0.81715,0.14366 -1.74729,0.26882 -0.9978,0.18602 -2.44325,0.33601 -4.43544,0.33601 l -23.31963,0 c -0.7475,0 -3.09969,-0.14999 -4.90586,-0.33601 -1.68439,-0.12516 -2.31903,-0.73924 -2.75534,-0.73924 z m 56.78699,0 c -0.37543,0 -0.66717,0.36287 -1.41127,2.41932 l -14.11275,38.77645 c -1.12631,3.11513 -2.37027,5.47127 -5.24187,5.84671 -0.4972,0.0609 -1.37818,0.13441 -1.8145,0.13441 -0.31118,0 -0.53763,0.0857 -0.53763,0.33602 0,0.37206 0.33409,0.53762 1.14246,0.53762 2.92911,0 6.36978,-0.20161 7.05638,-0.20161 0.68661,0 3.34366,0.20161 4.83865,0.20161 0.56486,0 0.94085,-0.16563 0.94085,-0.53762 0,-0.25028 -0.17195,-0.33602 -0.60483,-0.33602 l -0.60483,0 c -1.05868,0 -2.35213,-0.56643 -2.35213,-1.8145 0,-1.12293 0.31219,-2.60737 0.87365,-4.16662 l 3.69619,-11.08858 c 0.12516,-0.31118 0.36086,-0.47043 0.67204,-0.47043 l 13.37351,0 c 0.31118,0 0.41246,0.0892 0.53762,0.33602 l 5.84671,15.38961 c 0.37544,0.99778 -0.0312,1.55158 -0.40322,1.68009 -0.2503,0.0609 -0.40322,0.1563 -0.40322,0.40322 0,0.37544 0.63068,0.40955 1.8145,0.47043 4.30231,0.1286 8.87818,0.1344 9.81171,0.1344 0.68662,0 1.27687,-0.16563 1.27687,-0.53762 0,-0.31116 -0.2966,-0.33602 -0.67203,-0.33602 -0.62234,0 -1.54964,-0.092 -2.48654,-0.40322 -1.30897,-0.37544 -3.13379,-1.37496 -5.37628,-6.92197 -3.80174,-9.47391 -13.58243,-35.19915 -14.51597,-37.56678 -0.74747,-1.93131 -0.96863,-2.28492 -1.34407,-2.28492 z m 20.02666,0 c -0.25367,0 -0.47969,0.83422 -0.60483,1.20966 -0.12516,0.4972 -1.41128,5.8292 -1.41128,6.45154 0,0.37546 0.15007,0.60483 0.33602,0.60483 0.24692,0 0.41542,-0.17139 0.60483,-0.67203 0.18602,-0.43632 0.38865,-0.82305 1.07526,-1.8817 0.9944,-1.49839 2.52171,-1.95523 6.38434,-2.01611 l 9.20688,-0.1344 0,26.41099 c 0,5.98335 -0.0248,10.88999 -0.33601,13.50791 -0.2503,1.80618 -0.56641,3.18046 -1.8145,3.42738 -0.55808,0.1286 -1.32022,0.26882 -1.8817,0.26882 -0.37204,0 -0.47042,0.15004 -0.47042,0.33602 0,0.37206 0.32143,0.53762 1.00805,0.53762 1.87043,0 5.80434,-0.20161 6.11552,-0.20161 0.31116,0 4.23828,0.20161 7.66121,0.20161 0.68659,0 1.00805,-0.22649 1.00805,-0.53762 0,-0.18602 -0.16552,-0.33602 -0.53763,-0.33602 -0.56145,0 -1.94991,-0.14026 -2.82255,-0.26882 -1.86705,-0.24692 -2.23328,-1.6212 -2.41932,-3.42738 -0.31118,-2.61792 -0.26882,-7.52456 -0.26882,-13.50791 l 0,-26.41099 7.79561,0.1344 c 5.9732,0.12516 7.47519,1.55695 7.66121,3.42738 l 0.0672,0.67204 c 0.0643,0.87263 0.21634,1.07526 0.53763,1.07526 0.25367,0 0.40322,-0.24499 0.40322,-0.80645 0,-0.68661 0.20161,-4.98433 0.20161,-6.85476 0,-0.37544 0.0491,-0.73924 -0.26881,-0.73924 -0.25368,0 -0.88098,0.14366 -1.8145,0.26882 -0.9944,0.18602 -2.37941,0.33601 -4.36823,0.33601 l -23.38683,0 c -0.7475,0 -3.09634,-0.14999 -4.90586,-0.33601 -1.68104,-0.12516 -2.32241,-0.73924 -2.75535,-0.73924 z m -181.31517,0.40322 c -0.31118,0 -0.56247,0.27514 -0.87365,0.33602 -0.50057,0.12516 -1.50093,0.20793 -2.68814,0.26881 -1.43411,0.0643 -13.81081,0.0672 -14.24715,0.0672 l -2.55374,-0.1344 c -1.37323,-0.0643 -3.06852,-0.0672 -4.50264,-0.0672 -0.68321,0 -1.00805,0.16222 -1.00805,0.53763 0,0.2503 0.28733,0.33602 0.53763,0.33602 0.56146,0 1.58271,0.0765 2.08331,0.20161 2.05645,0.43632 2.563,1.44446 2.68814,3.56179 0.12516,1.99557 0.13441,3.71652 0.13441,13.44071 l 0,11.02138 c 0,5.98335 -0.0248,10.88999 -0.33602,13.50791 -0.2503,1.80618 -0.56642,3.18046 -1.81449,3.42738 -0.56146,0.1286 -1.25302,0.26882 -1.8145,0.26882 -0.37206,0 -0.53763,0.15004 -0.53763,0.33602 0,0.37206 0.32144,0.53762 1.00805,0.53762 0.93352,0 2.38092,-0.1344 3.629,-0.1344 1.30895,-0.0609 2.36139,-0.0672 2.48653,-0.0672 0.93354,0 2.40677,0.073 4.83865,0.20161 2.42851,0.0609 5.87658,0.13441 10.55096,0.13441 2.43191,0 2.92386,0.004 3.36018,-1.61288 0.31118,-1.31233 0.80644,-5.54435 0.80644,-6.04832 0,-0.43294 0.0394,-0.94085 -0.33602,-0.94085 -0.31118,0 -0.47967,0.25763 -0.60483,0.94085 -0.43632,2.55704 -1.13521,3.81602 -2.75535,4.50263 -1.62013,0.68324 -4.36098,0.67204 -5.98111,0.67204 -6.10849,0 -7.07194,-0.80515 -7.25798,-5.10747 -0.0609,-1.30897 0,-8.50083 0,-10.61816 l 0,-5.51069 c 0,-0.2503 0.0921,-0.47043 0.40322,-0.47043 1.05867,0 7.25366,0.15 8.93807,0.33602 2.42851,0.25028 2.97547,1.34508 3.22577,2.21772 0.2503,0.81175 0.26881,1.39377 0.26881,2.01611 0,0.31117 0.15583,0.53762 0.47043,0.53762 0.43292,0 0.40322,-0.64526 0.40322,-1.14246 0,-0.43631 0.14368,-2.72031 0.26881,-3.96501 0.18602,-2.05984 0.47043,-3.11912 0.47043,-3.49458 0,-0.37204 -0.14662,-0.53763 -0.33602,-0.53763 -0.24692,0 -0.43733,0.30924 -0.87365,0.80644 -0.56145,0.62574 -1.46196,0.74849 -2.95695,0.87365 -1.43411,0.12172 -9.07054,0.13441 -9.87892,0.13441 -0.31456,0 -0.40322,-0.1685 -0.40322,-0.60484 l 0,-17.2041 c 0,-0.43632 0.15294,-0.67204 0.40322,-0.67204 0.68324,0 7.4728,0.0764 8.53485,0.20161 3.36542,0.37206 3.93191,1.15274 4.36823,2.15052 0.31116,0.74749 0.40322,1.78139 0.40322,2.21771 0,0.4972 0.095,0.80644 0.47042,0.80644 0.2503,0 0.40617,-0.35747 0.47043,-0.67203 0.12516,-0.7475 0.27514,-3.47708 0.33602,-4.09942 0.18602,-1.74529 0.47042,-2.52064 0.47042,-2.95695 0,-0.31118 -0.0828,-0.53763 -0.26881,-0.53763 z m -197.24242,0.47042 c -0.68661,0 -1.00805,0.16222 -1.00805,0.53763 0,0.2503 0.29073,0.33602 0.53763,0.33602 0.56148,0 1.58611,0.0765 2.08331,0.20161 2.05645,0.43632 2.56298,1.44446 2.68814,3.56179 0.12516,1.99557 0.13441,3.71652 0.13441,13.44071 l 0,9.13968 c 0,9.09848 2.38926,13.46518 5.44348,16.39767 4.42411,4.17378 10.71518,4.43543 12.83588,4.43543 3.67661,0 8.34752,-0.64591 12.83588,-4.63704 4.98554,-4.42408 5.7123,-11.88456 5.7123,-18.61539 l 0,-6.72035 c 0,-9.72419 0.009,-11.44514 0.13441,-13.44071 0.12516,-2.18161 0.60051,-3.18635 2.28492,-3.56179 0.7475,-0.12516 1.17657,-0.20161 1.61288,-0.20161 0.2503,0 0.47043,-0.0857 0.47043,-0.33602 0,-0.37543 -0.32144,-0.53763 -1.00805,-0.53763 -1.87041,0 -4.80556,0.20161 -5.24188,0.20161 -0.37206,0 -3.782,-0.20161 -6.58595,-0.20161 -0.68661,0 -1.00805,0.16222 -1.00805,0.53763 0,0.2503 0.22013,0.33602 0.47042,0.33602 0.56146,0 1.64994,0.0765 2.15052,0.20161 2.05645,0.43632 2.563,1.44446 2.68814,3.56179 0.12516,1.99557 0.13441,3.71652 0.13441,13.44071 l 0,7.79561 c 0,6.41965 -0.76079,11.70376 -3.629,15.2552 -2.24249,2.67881 -6.00997,4.50264 -9.81171,4.50264 -3.55485,0 -6.35425,-0.55917 -9.4085,-3.42738 -2.68219,-2.55704 -4.63705,-6.41292 -4.63705,-15.38961 l 0,-8.73646 c 0,-9.72419 0.009,-11.44514 0.13441,-13.44071 0.12172,-2.18161 0.60391,-3.31149 2.28492,-3.56179 0.7509,-0.12516 1.10934,-0.20161 1.54568,-0.20161 0.25028,0 0.47043,-0.0857 0.47043,-0.33602 0,-0.37543 -0.25761,-0.53763 -0.94085,-0.53763 -1.87041,0 -5.62125,0.20161 -6.18273,0.20161 -0.56145,0 -4.38683,-0.20161 -7.19078,-0.20161 z m 103.09025,0 c -0.69,0 -1.00806,0.16222 -1.00806,0.53763 0,0.2503 0.22013,0.33602 0.47043,0.33602 0.43632,0 1.26228,0.0828 1.9489,0.26881 1.37321,0.31456 1.95817,1.37726 2.08331,3.49459 0.12516,1.99557 0.13441,3.71652 0.13441,13.44071 l 0,11.02138 c 0,5.98335 0.0424,10.88999 -0.26882,13.50791 -0.25029,1.80618 -0.56642,3.18046 -1.81449,3.42738 -0.56148,0.1286 -1.32022,0.26882 -1.8817,0.26882 -0.37544,0 -0.53763,0.15004 -0.53763,0.33602 0,0.37206 0.32144,0.53762 1.00805,0.53762 1.86704,0 5.80097,-0.20161 6.11553,-0.20161 0.31118,0 4.23152,0.20161 7.6612,0.20161 0.68324,0 1.00805,-0.22649 1.00805,-0.53762 0,-0.18602 -0.0949,-0.33602 -0.47042,-0.33602 -0.56146,0 -1.94991,-0.14026 -2.82255,-0.26882 -1.87043,-0.24692 -2.23331,-1.6212 -2.41933,-3.42738 -0.31118,-2.61792 -0.33602,-7.52456 -0.33602,-13.50791 l 0,-11.02138 c 0,-9.72419 0.009,-11.44514 0.13441,-13.44071 0.12516,-2.18161 0.60391,-3.25061 2.28492,-3.56179 0.75088,-0.12516 1.17657,-0.20161 1.61289,-0.20161 0.2503,0 0.47042,-0.0857 0.47042,-0.33602 0,-0.37543 -0.32481,-0.53763 -1.00805,-0.53763 -1.87043,0 -5.80434,0.20161 -6.11552,0.20161 -0.31456,0 -4.19686,-0.20161 -6.24993,-0.20161 z m 17.87614,0 c -0.9978,0 -1.61288,0.095 -1.61288,0.47043 0,0.24692 0.16558,0.40322 0.53762,0.40322 0.37544,0 1.41523,0.0219 2.35213,0.26881 2.18161,0.62234 3.1294,1.28089 4.50264,4.77146 l 15.2552,38.23881 c 1.18382,2.99337 1.46684,3.89781 2.21772,3.89781 0.62236,0 0.87564,-1.03399 2.62094,-4.77145 1.43749,-3.05762 4.26268,-9.78237 8.06442,-18.8842 3.17939,-7.66436 6.30593,-15.1228 6.98917,-16.86809 1.68439,-4.23806 2.61563,-5.35243 3.42738,-5.91391 1.18382,-0.7475 2.52064,-0.73924 2.95696,-0.73924 0.50059,0 0.73924,-0.0921 0.73924,-0.40322 0,-0.31456 -0.32146,-0.47043 -1.00806,-0.47043 -1.80617,0 -4.53042,0.20161 -4.90585,0.20161 -0.74413,0 -3.61936,-0.20161 -6.11553,-0.20161 -0.9944,0 -1.34407,0.16222 -1.34407,0.53763 0,0.31118 0.29658,0.33602 0.67204,0.33602 0.68321,0 1.60462,0.0219 2.35212,0.26881 0.62234,0.31456 0.87365,0.91406 0.87365,1.41128 0,0.56145 -0.29366,1.48241 -0.60483,2.41933 -1.36984,4.48496 -9.69061,26.18826 -13.30631,34.54262 l -11.96223,-31.92169 c -0.93354,-2.4319 -1.68009,-4.36291 -1.68009,-5.17467 0,-0.43632 0.12325,-0.89848 0.80644,-1.20966 0.56148,-0.2503 1.66551,-0.33602 2.35213,-0.33602 0.43632,0 0.60483,-0.0921 0.60483,-0.40322 0,-0.31456 -0.55715,-0.47043 -1.68009,-0.47043 -2.36763,0 -5.15377,0.20161 -5.7795,0.20161 -0.7475,0 -4.33183,-0.20161 -7.32519,-0.20161 z m 160.48207,0 c -0.68661,0 -1.00805,0.16222 -1.00805,0.53763 0,0.2503 0.28733,0.33602 0.53763,0.33602 0.43632,0 1.19508,0.0828 1.8817,0.26881 1.36985,0.31456 2.02535,1.37726 2.15051,3.49459 0.12516,1.99557 0.13441,3.71652 0.13441,13.44071 l 0,11.02138 c 0,5.98335 -0.0248,10.88999 -0.33602,13.50791 -0.25028,1.80618 -0.5664,3.18046 -1.81449,3.42738 -0.56146,0.1286 -1.32025,0.26882 -1.8817,0.26882 -0.37206,0 -0.47043,0.15004 -0.47043,0.33602 0,0.37206 0.32144,0.53762 1.00805,0.53762 1.86706,0 5.80435,-0.20161 6.11553,-0.20161 0.31118,0 4.23152,0.20161 7.6612,0.20161 0.68322,0 1.00805,-0.22649 1.00805,-0.53762 0,-0.18602 -0.16214,-0.33602 -0.53762,-0.33602 -0.56148,0 -1.88271,-0.14026 -2.75535,-0.26882 -1.87383,-0.24692 -2.30049,-1.6212 -2.48653,-3.42738 -0.31118,-2.61792 -0.26881,-7.52456 -0.26881,-13.50791 l 0,-11.02138 c 0,-9.72419 0.009,-11.44514 0.1344,-13.44071 0.12516,-2.18161 0.60389,-3.25061 2.28492,-3.56179 0.75088,-0.12516 1.10937,-0.20161 1.54568,-0.20161 0.25028,0 0.53763,-0.0857 0.53763,-0.33602 0,-0.37543 -0.32143,-0.53763 -1.00805,-0.53763 -1.86703,0 -5.80434,0.20161 -6.11552,0.20161 -0.31118,0 -4.26406,-0.20161 -6.31714,-0.20161 z m -75.46958,0.0672 c -0.68324,0 -1.00805,0.0949 -1.00805,0.47042 0,0.25028 0.2235,0.40322 0.47042,0.40322 0.56146,0 1.65332,0.009 2.15051,0.13441 2.05645,0.43632 2.49918,1.44106 2.62094,3.56179 0.1286,1.99219 0.13441,3.79049 0.13441,13.50791 l 0,10.95418 c 0,5.98333 0.0457,10.89338 -0.26881,13.50791 -0.25028,1.80955 -0.5698,3.18048 -1.8145,3.42738 -0.56148,0.12516 -1.32024,0.26882 -1.8817,0.26882 -0.37206,0 -0.47042,0.15 -0.47042,0.33602 0,0.37545 0.25423,0.53762 0.94085,0.53762 1.86705,0 5.85303,-0.20161 5.91391,-0.20161 0.31118,0 4.2349,0.20161 7.6612,0.20161 0.68322,0 0.94085,-0.22305 0.94085,-0.53762 0,-0.18602 -0.095,-0.33602 -0.47042,-0.33602 -0.56148,0 -1.94992,-0.14368 -2.82255,-0.26882 -1.86706,-0.2469 -2.23331,-1.61783 -2.41933,-3.42738 -0.31458,-2.61453 -0.33602,-7.52458 -0.33602,-13.50791 l 0,-1.54568 c 0,-0.31118 0.15931,-0.47043 0.47043,-0.47043 l 6.04832,0.0672 c 0.37543,0 0.68807,0.1461 0.80644,0.40322 0.94706,2.07 2.28604,5.61645 4.16662,9.4757 2.57395,5.27304 3.03012,7.57118 5.7123,9.00527 1.62013,0.87266 3.297,1.14246 6.78756,1.14246 l 3.02416,0 c 1.11956,0 1.47848,-0.16219 1.47848,-0.53762 0,-0.18602 -0.29366,-0.34617 -0.60484,-0.33602 -0.61558,0.0172 -1.64548,-0.1934 -2.82254,-0.40322 -1.0147,-0.17914 -3.95983,-0.89165 -5.77951,-4.30103 -2.27969,-4.26849 -4.84255,-10.4661 -7.32519,-15.72563 6.50423,-1.78248 10.81978,-7.21646 10.81978,-14.58317 0,-3.3891 -1.74816,-6.25122 -3.15857,-7.594 -1.02147,-0.9572 -3.90258,-3.62899 -11.89503,-3.62899 -2.93924,0 -8.38937,0.20161 -10.08053,0.20161 -0.73397,0 -4.18522,-0.20161 -6.98917,-0.20161 z m 327.28128,0.33601 c 0.16423,-0.0209 0.34034,-0.0272 0.53763,0 0.29313,0.0413 0.44279,0.0962 0.67203,0.20162 -0.83055,1.06355 -1.46366,2.17679 -2.0161,3.29297 -0.60131,1.22138 -1.1356,2.51193 -1.61289,3.7634 l -2.75534,-2.15052 0.80644,-1.41127 1.68009,-0.73924 -0.94085,-1.41127 c 0.78921,-0.49985 1.2711,-0.69613 2.15051,-1.00806 0.5609,-0.2001 0.98575,-0.47492 1.47848,-0.53763 z m -182.32323,0.0672 c -1.93131,0 -2.68814,1.5686 -2.68814,2.68814 0,1.18721 0.75051,2.68814 2.62094,2.68814 1.68441,0 2.75534,-1.26962 2.75534,-2.88975 0,-1.55925 -1.18977,-2.48653 -2.68814,-2.48653 z m 15.99445,0 c -1.93471,0 -2.68814,1.5686 -2.68814,2.68814 0,1.18721 0.7505,2.68814 2.62093,2.68814 1.68441,0 2.75535,-1.26962 2.75535,-2.88975 0,-1.55925 -1.19317,-2.48653 -2.68814,-2.48653 z m 127.68674,1.00805 2.28492,3.89781 -0.94085,2.21771 c -0.79672,0.43593 -1.25698,0.71359 -2.01611,1.20967 -0.49231,0.3232 -0.80377,0.57674 -1.20966,0.87364 0.10903,-1.33039 0.33204,-2.33199 0.94085,-3.69619 0,-1.46568 0.3884,-2.99186 0.94085,-4.50264 z m 15.32241,0.20161 c 0.56171,-0.0109 1.14035,0.0451 1.74729,0.13441 l 0.20161,0.0672 c -0.51109,0.87191 -0.94349,1.41304 -1.68009,2.28492 -0.54868,0.65017 -0.85838,1.03788 -1.47848,1.61289 -0.66143,-0.59754 -1.0633,-0.9707 -1.74729,-1.54568 -0.63513,-0.53367 -1.03788,-0.83341 -1.61288,-1.27687 1.39239,-0.74976 2.88467,-1.24427 4.56984,-1.27687 z m 26.5454,0.0672 4.50264,2.75534 c -2.62694,1.3642 -4.9381,3.4994 -6.85476,6.18273 l -1.94891,-1.68009 c 1.08988,-2.82238 2.58357,-5.25865 4.30103,-7.25798 z m -316.46151,0.26881 c 1.92116,-0.0237 6.15382,-0.29479 9.5429,3.15857 3.38911,3.44998 3.56179,7.70114 3.56179,9.81171 0,5.88187 -4.81818,10.28215 -11.02138,10.28215 -2.56042,0 -5.38362,-0.4466 -6.31713,-1.00806 -0.31118,-0.18602 -0.47043,-0.42806 -0.47043,-0.73923 l 0,-20.36268 c 0,-0.37206 0.22649,-0.61748 0.53763,-0.73924 0.62234,-0.18946 2.29619,-0.38292 4.16662,-0.40322 z m 293.34349,0.13441 c 1.78512,0.51485 3.41433,1.47007 4.83865,2.75534 -0.18795,0.83432 -0.37272,1.66396 -0.47042,2.41933 -0.15398,1.18007 -0.19411,2.03202 -0.20161,3.02416 -1.62353,-1.96174 -3.47289,-3.46097 -5.6451,-4.03221 l 1.47848,-4.16662 z m 12.29825,0.53763 c 0.0108,0.45098 0,0.94151 0,1.41127 0,2.28871 0.0184,4.24729 0.0672,6.18273 l -2.35212,-0.87365 c -0.28561,-0.80049 -0.56172,-1.54878 -0.87365,-2.21772 0.10151,-0.6276 0.17774,-1.10794 0.40322,-1.81449 0.33071,-1.05603 0.60505,-1.58414 1.14246,-2.55374 l 1.61289,-0.1344 z m 33.06414,0.1344 c 1.36797,2.88249 1.58181,6.27974 0.0672,9.13968 -0.83055,-1.95797 -2.34546,-4.57246 -4.50264,-6.45154 l 4.43543,-2.68814 z m -53.89724,0.40322 c 0.2518,0.35327 0.39438,0.64307 0.60483,1.07526 0.46225,0.9433 0.71999,1.63299 0.80644,2.55374 -0.92074,0.40965 -1.75744,0.95521 -2.48653,1.61288 -0.23299,-0.51111 -0.32806,-0.91055 -0.40322,-1.54568 -0.13527,-1.15375 -0.0327,-2.01368 0.40322,-2.95696 0.36454,-0.26307 0.69943,-0.51373 1.07526,-0.73924 z m 40.85976,2.01611 c 0.56089,-0.0498 1.14598,-0.0244 1.74729,0 2.14591,0.0865 4.44225,1.05844 6.24993,2.48653 0.1015,0.62761 0.1958,1.08078 -0.0672,1.9489 -0.3044,1.00343 -0.47771,1.70682 -1.07525,2.75535 -0.42469,-1.37923 -1.07304,-3.47955 -1.41128,-3.49458 -0.49982,-0.0226 -3.01794,0.92117 -3.96501,1.07525 0.0751,0.45475 0.21568,0.911 0.33602,1.47848 0.55997,-0.16903 2.34438,-0.7304 2.95696,-0.94085 0.31193,0.84932 1.1608,3.56596 1.20966,4.63705 0.65391,-0.34951 0.67092,-0.41781 1.41128,-0.47043 0.42842,-0.0301 1.2554,0.0593 1.68008,0.13441 -0.2518,0.54868 -0.33049,1.27332 -0.60483,1.81449 -0.48481,0.96208 -0.92427,1.45151 -1.74729,2.15052 -0.28187,0.24053 -0.45363,0.40234 -0.73924,0.53763 l -0.13441,-0.40323 c -0.87188,-3.36729 -3.09308,-4.96487 -6.24993,-5.64509 0.11269,-1.52582 0.12495,-2.46884 -0.1344,-4.03222 -0.24428,-1.50701 -0.53032,-2.44429 -1.07526,-3.7634 0.52238,-0.11838 1.05199,-0.21903 1.61289,-0.26881 z m -26.4782,0.60483 c 1.77383,1.97678 3.10196,4.62328 3.7634,7.86282 -0.54869,-0.48481 -1.13339,-0.74498 -1.94891,-1.00806 -0.76291,-0.24804 -1.3434,-0.31391 -2.0161,-0.26881 l -0.47043,-0.80644 c 0.25555,-0.77419 0.39482,-1.38629 0.53763,-2.35213 0.19548,-1.33039 0.24333,-2.25485 0.13441,-3.42738 z m 23.45404,0.13441 c 0.29687,1.17631 1.41127,4.03221 1.41127,4.03221 -0.0452,0.52238 -0.0823,2.1443 -0.0672,3.09137 -3.35603,-0.22549 -5.7786,1.74458 -8.19884,4.43543 -0.41341,0.46599 -0.82676,0.9636 -1.14246,1.47848 -0.63511,0.1015 -1.16059,0.0458 -1.81449,-0.26882 -0.25181,-0.12021 -0.41318,-0.25285 -0.60483,-0.40322 0.51485,-1.65733 1.30736,-3.4426 2.35212,-5.10747 2.08578,-3.32594 4.65578,-6.00651 8.06443,-7.25798 z m -15.65843,0.40322 c 0.77795,0.25931 1.25033,0.55995 1.8817,1.14246 0.44346,0.41716 0.70365,0.67976 1.00805,1.20966 -0.31191,0.50735 -0.58713,0.78499 -1.00805,1.20967 -0.60131,0.60881 -1.04451,0.94616 -1.74729,1.27687 -0.10903,-1.61224 -0.15699,-3.21889 -0.13441,-4.83866 z m -169.48735,2.15051 c 0.15516,0 0.24763,0.2725 0.40322,0.73924 l 5.98112,16.80089 c 0.0609,0.2503 0.0423,0.47042 -0.26882,0.47042 l -11.89502,0 c -0.18602,0 -0.32675,-0.15926 -0.20162,-0.47042 l 5.5107,-16.80089 c 0.15726,-0.46674 0.31526,-0.73924 0.47042,-0.73924 z m 152.75367,1.07526 c 5.44555,0.0536 9.29189,5.96602 9.13968,11.69342 -0.54868,-0.63137 -1.17891,-1.19199 -1.8817,-1.61289 -0.46976,-1.60097 -1.22293,-3.39798 -1.47848,-3.8978 -0.40589,-0.78922 -0.8513,-1.22866 -1.41127,-1.7473 -0.70653,0.37583 -1.13846,0.60086 -1.7473,1.20967 -0.40586,0.40589 -1.41327,1.23994 -1.68008,1.74729 -0.32321,-0.62763 -0.51617,-0.91476 -0.94085,-1.47848 -0.86062,-1.15375 -1.4893,-1.75699 -2.68815,-2.55373 -0.36077,0.32696 -0.54801,0.6055 -0.67203,1.07525 -0.094,0.35703 -0.0639,0.58006 0,0.94085 -0.89068,-0.0677 -1.41723,-0.20644 -2.21772,-0.60483 -0.75539,-0.37956 -1.27377,-0.73569 -1.74729,-1.27686 0.40963,-0.51486 0.87386,-1.02419 1.41127,-1.41128 2.08013,-1.50325 4.09873,-2.10116 5.91392,-2.08331 z m 21.50513,0.67204 1.8817,1.07525 c -1.52957,2.28871 -2.74627,4.89522 -3.56179,7.66121 0.18409,-3.15685 0.78565,-6.0757 1.68009,-8.73646 z m -34.81144,0.53762 c 0.27153,0.0188 0.54669,0.0348 0.87365,0.13441 0.57122,0.1729 0.83672,0.42731 1.34407,0.73924 0.62384,0.38333 1.0496,0.63931 1.54568,1.07526 -1.27026,2.81108 -1.81914,6.03855 -1.68009,8.66926 -1.73626,-0.90948 -3.13314,-2.01476 -4.16662,-3.36018 0.48103,-0.13161 0.90724,-0.25998 1.47848,-0.47043 0.80801,-0.2969 1.24194,-0.49408 2.01611,-0.87364 -0.12022,-1.19509 -0.30241,-1.89714 -0.87365,-2.95696 -0.3683,-0.68773 -0.94659,-0.87629 -1.20966,-1.61288 -0.1729,-0.47729 -0.20535,-0.76952 -0.20161,-1.27687 0.33823,-0.0507 0.60212,-0.086 0.87364,-0.0672 z m -4.30102,0.67204 c 0.93953,0.55245 1.50697,1.10289 2.28492,2.01611 0.74035,0.86437 1.09472,1.438 1.54568,2.48653 -0.35327,0.2518 -0.54625,0.35348 -0.94085,0.53763 -0.50359,0.233 -0.90812,0.38776 -1.34407,0.47042 -0.93578,-1.58594 -1.47429,-3.45123 -1.54568,-5.51069 z m 36.76034,0.20161 c -0.68774,2.13088 -1.27377,3.93869 -1.7473,5.10747 -0.19913,-1.69116 -0.3464,-3.30865 -0.47042,-4.90586 l 2.21772,-0.20161 z m -5.30908,0.13441 1.68009,0.1344 c 0.0677,2.61944 0.1272,5.30992 0.0672,8.60206 -0.47352,-3.45375 -1.0821,-6.36507 -1.74729,-8.73646 z m -1.07526,2.41933 c 0.36077,2.01436 0.46047,4.28507 0.26881,6.72035 -0.90571,-2.18348 -1.88544,-4.47055 -3.02416,-6.51874 l 2.75535,-0.20161 z m -21.30352,0.94085 c 1.77008,0.18042 2.88618,0.48388 4.56984,1.27686 1.44688,0.68023 2.25152,1.2218 3.36017,2.21772 -0.15032,0.0527 -0.26417,0.14161 -0.40322,0.20161 -1.28151,0.57124 -2.3689,1.30824 -3.22577,2.21772 l -4.97306,0.67203 c -0.34197,-2.16092 -0.16602,-4.56031 0.67204,-6.58594 z m 41.93501,0.20161 c -0.38333,0.43595 -0.62518,0.89928 -0.94085,1.54568 -0.21798,0.45475 -0.33511,0.72485 -0.47043,1.20966 -0.357,-0.56373 -0.64971,-0.85263 -1.20966,-1.20966 -0.37956,-0.24052 -0.72952,-0.37273 -1.07526,-0.47043 1.16879,-0.66143 2.4297,-1.06773 3.6962,-1.07525 z m 0.80644,0.0672 c 0.28563,0.0301 0.5246,0.0591 0.80644,0.13441 1.71749,0.44722 2.92997,1.8326 3.629,3.62899 -1.0335,0.47728 -1.67057,0.97222 -2.55374,1.8817 -0.31567,0.3232 -0.58847,0.5133 -0.80644,0.80644 -0.43972,-0.34952 -0.9035,-0.57386 -1.47848,-0.73924 -0.32696,-0.094 -0.66606,-0.16032 -1.00805,-0.20161 0.0488,-1.39426 0.21354,-2.28314 0.67203,-3.69619 0.24054,-0.7441 0.44987,-1.23575 0.73924,-1.8145 z m -53.89724,2.48653 c 1.3454,1.0222 2.12948,1.50323 3.62899,2.28492 1.35669,0.70653 2.17836,1.05337 3.62899,1.54568 -1.39803,0.50359 -2.27892,0.65701 -3.7634,0.67204 -0.70277,0.004 -1.123,-0.029 -1.8145,-0.13441 0,0 -1.64251,-1.90664 -1.68008,-4.36823 z m 66.66592,0.47043 c 0.51158,-0.0113 1.01908,0.031 1.61288,0.1344 -0.0376,0.49606 -0.0962,1.02707 -0.20161,1.54568 -0.50359,2.50669 -1.85604,5.10324 -3.49458,7.4596 -0.21054,-1.00343 -0.60703,-2.62999 -1.41128,-4.09942 -0.52614,-0.96584 -1.25452,-1.43912 -1.81449,-1.74729 -0.0262,-0.47354 -0.0705,-0.89685 -0.13441,-1.34407 1.21011,-0.95455 2.16995,-1.42409 3.7634,-1.74729 0.63324,-0.12589 1.1685,-0.19035 1.68009,-0.20161 z m -19.95946,0.26881 c 0.80799,0.22174 1.35756,0.56369 2.15052,1.14246 0.57874,0.42466 0.96824,0.73614 1.34407,1.20966 -2.61944,0.45849 -5.23014,2.09213 -6.45154,4.16662 0.27434,-2.45408 1.41611,-4.75616 2.95695,-6.51874 z m -5.30908,0.60483 c 0.19914,0.19914 0.44987,0.34972 0.73924,0.53763 0.46602,0.30064 0.81838,0.49208 1.27687,0.60483 -0.72533,1.57844 -1.15902,3.16274 -1.47848,4.23383 -0.56748,-1.06356 -1.06487,-1.76188 -0.94085,-2.95696 0.0753,-0.72158 0.17398,-1.54745 0.40322,-2.41933 z m -21.03471,2.08331 c 1.58833,-0.16886 3.28958,0.36565 4.23382,1.61289 -1.5709,0.0677 -3.14529,0.9256 -4.03221,1.54568 l -0.94085,-1.8817 -1.81449,-0.20161 c 0.72719,-0.56935 1.60073,-0.97395 2.55373,-1.07526 z m 38.64204,0.47043 c 0.39084,3.0516 -0.19187,6.59209 -1.68009,9.07248 0.33824,-2.08577 0.21776,-4.52361 -0.53763,-6.45155 0.84935,-0.42842 1.30715,-0.91252 1.8145,-1.81449 0.15785,-0.27434 0.31303,-0.56593 0.40322,-0.80644 z m -44.82477,0.94085 c -0.73285,1.2928 -1.06022,2.76392 -1.07525,4.30102 -1.01846,-0.85311 -1.81516,-2.17791 -2.28492,-3.69619 l 3.36017,-0.60483 z m 37.29797,0.1344 c 0.0194,0.50735 0.0997,0.9161 0.26882,1.27687 -0.22548,0.64266 -0.31677,1.20435 -0.40322,2.01611 -0.16151,1.50325 -0.0328,2.37995 0.40322,3.8306 l 0.80644,-1.8145 0.13441,-2.88975 c 0.80048,0.78922 1.7371,1.49504 2.15051,2.95696 0.36454,1.28529 0.24692,2.89371 -0.40322,4.56984 -2.48036,-0.16172 -4.24774,-0.93087 -4.97306,-3.02416 -0.60507,-1.74753 -0.17495,-5.54273 2.0161,-6.92197 z m -34.81143,0.80645 1.54568,0.40322 1.47848,1.14246 c -1.10115,1.08609 -1.61577,2.43036 -1.7473,4.16662 -1.75882,-1.42809 -2.27653,-3.67914 -1.27686,-5.7123 z m 44.69036,0.1344 c 0.68399,0.51486 1.04342,1.04317 1.34407,1.94891 0.30817,0.91697 0.0895,1.52067 0.1344,2.48653 0.0301,0.58251 0.0334,1.02373 0.0672,1.47848 -1.82271,2.2361 -3.78372,4.11773 -5.24188,5.30908 1.72123,-2.61567 2.4821,-4.33701 3.15857,-7.39239 0.30064,-1.35294 0.4587,-2.61299 0.53763,-3.83061 z M 360.9933,705.01244 c -0.25028,0 -0.4797,0.7738 -0.60483,1.14246 -0.12516,0.50059 -1.34407,5.89301 -1.34407,6.51874 0,0.37206 0.0828,0.53763 0.26881,0.53763 0.2503,0 0.48599,-0.10765 0.67204,-0.60483 0.18601,-0.43294 0.32483,-0.89023 1.00805,-1.9489 0.99442,-1.49162 2.52849,-1.95523 6.38434,-2.01611 l 9.20688,-0.13441 0,26.34379 c 0,5.96983 -0.0248,10.89676 -0.33602,13.50792 -0.2469,1.80617 -0.5698,3.11327 -1.81449,3.36017 -0.55808,0.12516 -1.25642,0.26882 -1.8145,0.26882 -0.37543,0 -0.53763,0.21718 -0.53763,0.40322 0,0.37544 0.32482,0.47042 1.00806,0.47042 1.86365,0 5.80434,-0.20161 6.11552,-0.20161 0.31118,0 4.18122,0.20161 7.594,0.20161 0.68322,0 1.00805,-0.15924 1.00805,-0.47042 0,-0.18602 -0.0984,-0.40322 -0.47042,-0.40322 -0.55808,0 -1.95329,-0.14368 -2.82255,-0.26882 -1.86028,-0.2469 -2.23329,-1.554 -2.41933,-3.36017 -0.31118,-2.61116 -0.33602,-7.53809 -0.33602,-13.50792 l 0,-26.34379 7.86282,0.13441 c 5.95628,0.12516 7.40798,1.56035 7.594,3.42738 l 0.0672,0.67204 c 0.0643,0.87263 0.21981,1.07525 0.53763,1.07525 0.25368,0 0.47043,-0.24836 0.47043,-0.80644 0,-0.68324 0.1344,-4.98771 0.1344,-6.85476 0,-0.36866 0.0525,-0.73924 -0.26881,-0.73924 -0.25367,0 -0.88436,0.21088 -1.8145,0.33602 -0.99439,0.18602 -2.38281,0.26881 -4.36823,0.26881 l -23.31963,0 c -0.74747,0 -3.0997,-0.0828 -4.90586,-0.26881 -1.67763,-0.12516 -2.3224,-0.73924 -2.75534,-0.73924 z m 156.31545,0 c -0.50059,0 -0.67203,0.66623 -0.67203,3.09136 l -0.0672,35.61788 c 0,5.65865 -0.32582,7.4937 -1.8817,7.93002 -0.93014,0.3078 -1.98933,0.33602 -2.48653,0.33602 -0.31118,0 -0.53763,0.15288 -0.53763,0.40322 0,0.43632 0.38572,0.47042 1.00806,0.47042 2.79719,0 5.41964,-0.20161 5.98111,-0.20161 0.56484,0 3.04805,0.20161 6.58595,0.20161 0.74412,0 1.14246,-0.0949 1.14246,-0.47042 0,-0.2503 -0.22645,-0.40322 -0.53763,-0.40322 -0.55808,0 -1.91432,-0.0283 -3.09136,-0.33602 -1.67426,-0.4972 -2.29417,-2.15744 -2.41933,-7.25798 l -0.80644,-29.77118 c 1.98882,2.23572 8.99846,10.10355 16.19605,17.87615 6.57864,7.08936 15.51622,16.1819 16.19606,16.80089 3.30454,3.29777 4.06927,4.03221 4.56984,4.03221 0.43972,0 0.53763,-0.33266 0.53763,-4.43544 l 0.13441,-36.42432 c 0,-3.73071 0.23184,-5.14495 2.28492,-5.57789 0.74412,-0.18946 1.2345,-0.13441 1.54568,-0.13441 0.43292,0 0.67203,-0.2235 0.67203,-0.47043 0,-0.37543 -0.45922,-0.40322 -1.14246,-0.40322 -2.55027,0 -4.61908,0.13441 -5.30908,0.13441 -0.68661,0 -3.66112,-0.13441 -6.45154,-0.13441 -0.7441,0 -1.20966,0.0278 -1.20966,0.40322 0,0.24691 0.0341,0.47043 0.47042,0.47043 0.4938,0 1.908,0.0185 3.02416,0.26881 1.92456,0.49722 2.35505,1.87205 2.41933,5.91392 l 0.67204,31.58566 c -1.9888,-2.05307 -8.70629,-9.60389 -14.85199,-16.19605 -9.55847,-10.25522 -18.8243,-20.31205 -19.75784,-21.37073 -0.62911,-0.61896 -1.71714,-1.9489 -2.21772,-1.9489 z m 74.93196,0 c -4.78599,0 -11.00491,0.41739 -16.59928,3.8978 -5.53348,3.48381 -10.34934,10.48584 -10.34934,20.42988 0,7.77258 3.5974,14.44735 7.39239,17.74174 6.89994,6.03068 15.70139,6.65315 20.42987,6.65315 3.60558,0 9.25809,-0.70859 13.2391,-2.82255 0.7441,-0.43632 0.80645,-0.56636 0.80645,-3.36018 l 0,-6.92196 c 0,-2.61116 -0.058,-4.46273 0.0672,-6.45154 0.12516,-2.17484 0.67449,-3.25061 2.35212,-3.56179 0.7475,-0.12172 1.10937,-0.20161 1.54569,-0.20161 0.2469,0 0.47042,-0.15632 0.47042,-0.40322 0,-0.37206 -0.32483,-0.47043 -1.00805,-0.47043 -1.86706,0 -5.74052,0.20161 -6.04832,0.20161 -0.31456,0 -4.2558,-0.20161 -7.05638,-0.20161 -0.68321,0 -1.00805,0.0984 -1.00805,0.47043 0,0.2469 0.29073,0.40322 0.53763,0.40322 0.55808,0 1.58611,0.0799 2.08331,0.20161 2.48602,0.68322 2.82255,1.34805 2.82255,6.38434 l 0,10.55095 c 0,1.0553 -0.46849,1.78138 -1.27687,2.21772 -1.61675,0.93352 -4.82065,1.27687 -7.05637,1.27687 -5.72288,0 -11.41934,-1.86716 -16.33046,-6.65315 -2.18161,-2.11396 -6.58595,-8.44049 -6.58595,-17.20411 0,-7.27538 2.57378,-12.93138 6.18273,-15.79284 4.72173,-3.73071 9.38957,-4.09941 13.3063,-4.09941 8.02288,0 13.02392,2.67601 14.58317,5.04026 0.93014,1.4916 1.28319,3.22676 1.34407,4.09942 0.0609,0.55808 0.0921,0.94085 0.40322,0.94085 0.43294,0 0.60483,-0.34965 0.60483,-1.34407 0,-6.21671 0.40322,-7.93441 0.40322,-8.80367 0,-0.25029 -0.1169,-0.47337 -0.73924,-0.53762 -1.55585,-0.0609 -3.73466,-0.36426 -5.04026,-0.67204 -1.18042,-0.2503 -5.55897,-1.00805 -9.4757,-1.00805 z m 63.23854,0 c -0.50058,0 -0.67204,0.66623 -0.67204,3.09136 l -0.0672,35.61788 c 0,5.65865 -0.3292,7.4937 -1.8817,7.93002 -0.93352,0.3078 -2.05314,0.33602 -2.55374,0.33602 -0.31118,0 -0.47042,0.15288 -0.47042,0.40322 0,0.43632 0.31849,0.47042 0.94085,0.47042 2.7938,0 5.41964,-0.20161 5.98111,-0.20161 0.56486,0 3.11524,0.20161 6.65316,0.20161 0.74747,0 1.07525,-0.0949 1.07525,-0.47042 0,-0.2503 -0.15918,-0.40322 -0.47042,-0.40322 -0.56146,0 -1.91093,-0.0283 -3.09137,-0.33602 -1.67426,-0.4972 -2.29756,-2.15744 -2.41932,-7.25798 l -0.80645,-29.77118 c 1.9888,2.23572 8.99846,10.10355 16.19606,17.87615 6.58201,7.08936 15.51284,16.1819 16.19605,16.80089 3.30455,3.29777 4.00205,4.03221 4.50264,4.03221 0.4397,0 0.60483,-0.33266 0.60483,-4.43544 l 0.13441,-36.42432 c 0,-3.73071 0.22847,-5.14495 2.28492,-5.57789 0.74412,-0.18946 1.1673,-0.13441 1.47848,-0.13441 0.43294,0 0.67204,-0.2235 0.67204,-0.47043 0,-0.37543 -0.39204,-0.40322 -1.07526,-0.40322 -2.55027,0 -4.61909,0.13441 -5.30908,0.13441 -0.68999,0 -3.65772,-0.13441 -6.45154,-0.13441 -0.7441,0 -1.27687,0.0278 -1.27687,0.40322 0,0.24691 0.10467,0.47043 0.53763,0.47043 0.4972,0 1.908,0.0185 3.02416,0.26881 1.92456,0.49722 2.35507,1.87205 2.41933,5.91392 l 0.67203,31.58566 c -1.98881,-2.05307 -8.77687,-9.60389 -14.91919,-16.19605 -9.55845,-10.25522 -18.75712,-20.31205 -19.69064,-21.37073 -0.62573,-0.61896 -1.71712,-1.9489 -2.21771,-1.9489 z m -13.70953,0.33602 c -0.3078,0 -0.56248,0.27176 -0.87364,0.33601 -0.5006,0.12516 -1.50771,0.27176 -2.68814,0.33602 -1.4341,0.0609 -13.81082,0 -14.24716,0 l -2.55373,-0.0672 c -1.36646,-0.0643 -3.00472,-0.0672 -4.43544,-0.0672 -0.68661,0 -1.00805,0.0984 -1.00805,0.47043 0,0.2469 0.22353,0.40322 0.47043,0.40322 0.56147,0 1.65329,0.006 2.15051,0.13441 2.04968,0.43294 2.56298,1.44783 2.68814,3.56178 0.12516,1.9888 0.0672,3.74358 0.0672,13.44071 l 0,10.95418 c 0,5.96983 0.0424,10.89676 -0.26881,13.50792 -0.2469,1.80617 -0.5698,3.11327 -1.8145,3.36017 -0.55808,0.12516 -1.32361,0.26882 -1.88169,0.26882 -0.37544,0 -0.47043,0.21718 -0.47043,0.40322 0,0.37544 0.32819,0.47042 1.00805,0.47042 0.93352,0 2.32049,-0.1344 3.56179,-0.1344 1.30558,-0.0643 2.36139,-0.0672 2.48653,-0.0672 0.93354,0 2.41352,0.0799 4.83866,0.20161 2.42173,0.0609 5.88673,0.20161 10.55096,0.20161 2.42513,0 2.92386,0.004 3.36017,-1.61288 0.31118,-1.3022 0.80645,-5.54772 0.80645,-6.04832 0,-0.43292 -0.0278,-0.94085 -0.40323,-0.94085 -0.3078,0 -0.41246,0.25763 -0.53762,0.94085 -0.43632,2.55029 -1.2058,3.81602 -2.82255,4.50264 -1.61676,0.68324 -4.36438,0.67203 -5.98112,0.67203 -6.09159,0 -7.00476,-0.81868 -7.19078,-5.10747 -0.0609,-1.30557 0,-8.5042 0,-10.61816 l 0,-5.51069 c 0,-0.25027 0.16267,-0.40322 0.47043,-0.40322 1.05867,0 7.19323,0.15 8.87086,0.33602 2.42512,0.2503 2.97887,1.27788 3.22577,2.15051 0.2503,0.80838 0.26882,1.39715 0.26882,2.01611 0,0.31118 0.0954,0.60483 0.40322,0.60483 0.43294,0 0.47043,-0.71584 0.47043,-1.20966 0,-0.43632 0.0765,-2.72032 0.20161,-3.96501 0.18602,-2.05308 0.53762,-3.11915 0.53762,-3.49459 0,-0.37206 -0.14655,-0.47042 -0.33601,-0.47042 -0.24693,0 -0.50791,0.30922 -0.94085,0.80644 -0.56148,0.62571 -1.39816,0.74849 -2.88976,0.87365 -1.43073,0.12172 -9.07054,0.1344 -9.87892,0.1344 -0.31116,0 -0.40322,-0.23565 -0.40322,-0.67203 l 0,-17.13691 c 0,-0.43294 0.15634,-0.60483 0.40322,-0.60483 0.68662,0 7.41235,0.0764 8.46765,0.20161 3.35865,0.37206 4.00249,1.08891 4.43543,2.08331 0.31118,0.7475 0.40323,1.78478 0.40323,2.21772 0,0.50057 0.095,0.80644 0.47042,0.80644 0.24692,0 0.40617,-0.36085 0.47042,-0.67203 0.12172,-0.74748 0.21131,-3.48046 0.26882,-4.09942 0.18602,-1.73852 0.53763,-2.45344 0.53763,-2.88975 0,-0.31118 -0.0828,-0.60483 -0.26882,-0.60483 z m -238.23658,0.53762 c -0.68324,0 -1.00805,0.0984 -1.00805,0.47043 0,0.2503 0.29071,0.40322 0.53763,0.40322 0.55808,0 1.58611,0.0127 2.08331,0.13441 2.05307,0.43631 2.563,1.45121 2.68814,3.56178 0.12516,1.98882 0.13441,3.7402 0.13441,13.44071 l 0,9.07248 c 0,9.07478 2.33219,13.41151 5.37628,16.33047 4.41395,4.16702 10.72193,4.43543 12.83588,4.43543 3.66643,0 8.36105,-0.65943 12.83588,-4.63704 4.9754,-4.41733 5.7123,-11.83428 5.7123,-18.54818 l 0,-6.65316 c 0,-9.70051 -0.0545,-11.45189 0.0672,-13.44071 0.12516,-2.17483 0.67109,-3.18635 2.35213,-3.56178 0.7441,-0.12172 1.10936,-0.13441 1.54568,-0.13441 0.2469,0 0.47042,-0.15288 0.47042,-0.40322 0,-0.37204 -0.32483,-0.47043 -1.00805,-0.47043 -1.86366,0 -4.73833,0.13441 -5.17467,0.13441 -0.37544,0 -3.78878,-0.13441 -6.58595,-0.13441 -0.68324,0 -1.00805,0.0984 -1.00805,0.47043 0,0.2503 0.2235,0.40322 0.47042,0.40322 0.56146,0 1.65669,0.0127 2.15051,0.13441 2.05308,0.43631 2.56301,1.45121 2.68815,3.56178 0.12516,1.98882 0.0672,3.7402 0.0672,13.44071 l 0,7.79562 c 0,6.40274 -0.70034,11.64331 -3.56179,15.188 -2.23571,2.67203 -6.01673,4.50264 -9.81172,4.50264 -3.54129,0 -6.29719,-0.56593 -9.34129,-3.42739 -2.67541,-2.54689 -4.70425,-6.43659 -4.70425,-15.38961 l 0,-8.66926 c 0,-9.70051 0.009,-11.45189 0.13441,-13.44071 0.12516,-2.17483 0.60728,-3.31151 2.28492,-3.56178 0.7475,-0.12172 1.17657,-0.13441 1.61289,-0.13441 0.2469,0 0.47042,-0.15288 0.47042,-0.40322 0,-0.37204 -0.32483,-0.47043 -1.00805,-0.47043 -1.86706,0 -5.55745,0.13441 -6.11553,0.13441 -0.56147,0 -4.3936,-0.13441 -7.19078,-0.13441 z m 51.20911,0 c -0.68324,0 -1.00805,0.0984 -1.00805,0.47043 0,0.2469 0.29072,0.40322 0.53762,0.40322 0.56148,0 1.58611,0.006 2.08331,0.13441 2.05308,0.43294 2.56301,1.44783 2.68815,3.56178 0.12516,1.9888 0.1344,3.74358 0.1344,13.44071 l 0,10.95418 c 0,5.96983 -0.0249,10.89676 -0.33602,13.50792 -0.25029,1.80617 -0.57317,3.11327 -1.81449,3.36017 -0.56146,0.12516 -1.32024,0.26882 -1.8817,0.26882 -0.37206,0 -0.47043,0.21718 -0.47043,0.40322 0,0.37544 0.32482,0.47042 1.00806,0.47042 0.93351,0 2.38769,-0.1344 3.62899,-0.1344 1.3056,-0.0643 2.36477,-0.0672 2.48653,-0.0672 0.2503,0 1.96062,0.0799 3.7634,0.20161 1.8028,0.0609 3.8194,0.20161 4.50264,0.20161 10.63065,0 15.86003,-6.92207 15.86003,-13.57511 0,-7.27201 -6.2198,-11.67058 -10.81977,-13.10469 2.91896,-3.0441 5.84671,-6.12583 5.84671,-11.223 0,-3.10837 -2.23832,-9.27409 -12.43265,-9.27409 -2.85806,0 -5.22537,0.13441 -6.72036,0.13441 -0.30778,0 -4.2592,-0.13441 -7.05637,-0.13441 z m 37.09636,0 c -0.68662,0 -1.00806,0.0984 -1.00806,0.47043 0,0.2469 0.22015,0.40322 0.47043,0.40322 0.43294,0 1.26566,0.0156 1.9489,0.20161 1.36984,0.31456 1.96155,1.38063 2.08331,3.49458 0.12516,1.9888 0.13441,3.74358 0.13441,13.44071 l 0,10.95418 c 0,5.96983 -0.0248,10.89676 -0.33602,13.50792 -0.2469,1.80617 -0.5026,3.11327 -1.74729,3.36017 -0.55808,0.12516 -1.32362,0.26882 -1.8817,0.26882 -0.37544,0 -0.47043,0.21718 -0.47043,0.40322 0,0.37544 0.26099,0.47042 0.94085,0.47042 1.86704,0 5.80437,-0.20161 6.11553,-0.20161 0.31118,0 4.24167,0.20161 7.6612,0.20161 0.68324,0 1.00805,-0.15924 1.00805,-0.47042 0,-0.18602 -0.16558,-0.40322 -0.53762,-0.40322 -0.5581,0 -1.88609,-0.14368 -2.75535,-0.26882 -1.86366,-0.2469 -2.30049,-1.554 -2.48653,-3.36017 -0.31118,-2.61116 -0.26881,-7.53809 -0.26881,-13.50792 l 0,-10.95418 c 0,-9.69713 0.009,-11.45191 0.1344,-13.44071 0.12516,-2.17483 0.60729,-3.25398 2.28492,-3.56178 0.7475,-0.1286 1.10937,-0.13441 1.54568,-0.13441 0.24693,0 0.47043,-0.15632 0.47043,-0.40322 0,-0.37206 -0.25423,-0.47043 -0.94085,-0.47043 -1.86368,0 -5.80434,0.13441 -6.11552,0.13441 -0.31116,0 -4.20026,-0.13441 -6.24993,-0.13441 z m -64.51541,0.87365 c -1.5525,0 -2.48653,1.19655 -2.48653,2.68814 0,1.93131 1.56858,2.62094 2.68814,2.62094 1.18382,0 2.68814,-0.68668 2.68814,-2.55373 0,-1.67764 -1.27301,-2.75535 -2.88975,-2.75535 z m 39.17967,0.87365 c 0.5361,-0.0469 1.00244,0 1.34407,0 6.09157,0 8.40044,5.52393 8.40044,10.68536 0,2.55027 -0.91214,4.75833 -2.21771,6.24993 -1.3056,1.49162 -2.16131,1.61289 -5.6451,1.61289 -2.29998,0 -3.45854,-0.20792 -3.8306,-0.26882 -0.31118,-0.12516 -0.40322,-0.23909 -0.40322,-0.67203 l 0,-16.66648 c 0,-0.37544 0.17776,-0.54688 0.73923,-0.67204 0.4972,-0.12346 1.07679,-0.22189 1.61289,-0.26881 z m 368.40985,6.92196 0.80644,2.21772 c 1.04102,2.79982 2.61296,4.4816 2.68815,7.12357 0.13526,4.73528 -2.8086,8.75986 -5.5107,10.88698 3.26208,-3.18691 4.22434,-7.01674 2.82255,-11.3574 -0.86435,-2.66829 -1.98602,-4.20107 -4.30102,-5.77951 0.66517,-0.72908 1.06661,-1.10089 1.81449,-1.74729 0.62761,-0.54492 0.99988,-0.86302 1.68009,-1.34407 z m -407.58952,4.70425 c -1.5525,0 -2.48653,1.19652 -2.48653,2.68814 0,1.92792 1.56858,2.62094 2.68814,2.62094 1.18382,0 2.68814,-0.69008 2.68814,-2.55373 0,-1.68102 -1.27301,-2.75535 -2.88975,-2.75535 z m 37.16356,8.60205 c 0.93352,0 4.03028,0.009 4.83866,0.13441 1.49162,0.18602 3.06072,0.38376 5.17467,1.8145 4.78599,3.29437 6.04832,8.70194 6.04832,12.43265 0,7.02511 -5.37781,8.80367 -8.73646,8.80367 -1.11956,0 -3.82968,-0.13243 -5.51069,-0.94085 -1.92794,-0.93692 -1.89729,-1.79456 -2.08331,-4.83866 -0.0609,-0.93351 -0.0672,-8.65132 -0.0672,-13.44071 l 0,-3.49458 c 0,-0.3078 0.0891,-0.47043 0.33601,-0.47043 z m 379.56564,17.13691 c 0.22174,2.20604 -0.0954,4.36866 -2.08331,5.44349 -1.37925,0.74786 -2.61915,0.57788 -4.03221,0.1344 1.33414,-0.30064 2.06118,-0.66296 3.15857,-1.47847 1.57843,-1.16879 2.32558,-2.2429 2.95695,-4.09942 z"
       id="path46"
       style="fill:#a51e37;fill-opacity:1;fill-rule:evenodd;stroke:none" />
  </g>
</svg>
